SplineFontDB: 3.0
FontName: Vinron-Bold
FullName: Vinron Bold
FamilyName: Vinron
Weight: Bold
Copyright: Copyright (c) 2018, Jeong-il Seok
UComments: "2018-2-18: Created with FontForge (http://fontforge.org)"
Version: 1.001
ItalicAngle: 0
UnderlinePosition: -200
UnderlineWidth: 100
Ascent: 800
Descent: 200
InvalidEm: 0
LayerCount: 2
Layer: 0 0 "+tLe6dAAA" 1
Layer: 1 0 "+xV66dAAA" 0
PreferredKerning: 4
XUID: [1021 752 363211294 2835]
StyleMap: 0x0020
FSType: 0
OS2Version: 0
OS2_WeightWidthSlopeOnly: 0
OS2_UseTypoMetrics: 1
CreationTime: 1518945957
ModificationTime: 1526389721
PfmFamily: 33
TTFWeight: 700
TTFWidth: 5
LineGap: 90
VLineGap: 0
OS2TypoAscent: 0
OS2TypoAOffset: 1
OS2TypoDescent: 0
OS2TypoDOffset: 1
OS2TypoLinegap: 90
OS2WinAscent: 0
OS2WinAOffset: 1
OS2WinDescent: 0
OS2WinDOffset: 1
HheadAscent: 0
HheadAOffset: 1
HheadDescent: 0
HheadDOffset: 1
OS2Vendor: 'PfEd'
Lookup: 4 0 0 "+x4THWMCsxqkA +1WnHTMeQ" { "+x4THWMCsxqkA +1WnHTMeQ"  } ['dlig' ('DFLT' <'dflt' > 'latn' <'dflt' > ) ]
Lookup: 4 0 1 "Base ligature" { "about f"  } ['liga' ('DFLT' <'dflt' > 'grek' <'dflt' > 'latn' <'dflt' > ) ]
Lookup: 258 0 0 "Kerning" { "Latin Capital" [150,15,0] "Latin Small" [150,15,0] "Special" [153,15,0] } ['kern' ('DFLT' <'dflt' > 'cans' <'dflt' > 'latn' <'dflt' > ) ]
MarkAttachClasses: 1
DEI: 91125
KernClass2: 7 20 "Special"
 5 space
 20 quotedbl quotesingle
 6 exclam
 8 question
 10 asciitilde
 12 comma period
 41 f t longs f_f f_i f_l f_f_i f_f_l longs_t
 354 B D E F H I K L M N P R b h i k l p Egrave Eacute Ecircumflex Edieresis Igrave Iacute Icircumflex Idieresis Ntilde Dcaron Emacron Ebreve Edotaccent Ecaron Hcircumflex hcircumflex Imacron Ibreve Idotaccent IJ ij Kcommaaccent kcommaaccent Lacute lacute Lcommaaccent lcommaaccent Lcaron lcaron Ldot ldot Nacute Ncommaaccent Ncaron Racute Rcommaaccent Rcaron

StartChar: exclam
Encoding: 33 33 0
Width: 300
Flags: W
HStem: 0 130<80 220> 720 20G<80 220>
VStem: 80 140<0 130 404.667 740>
LayerCount: 2
Fore
SplineSet
80 470 m 1
 80 740 l 1
 220 740 l 1
 220 470 l 1
 190 190 l 1
 110 190 l 1
 80 470 l 1
80 0 m 1
 80 130 l 1
 220 130 l 1
 220 0 l 1
 80 0 l 1
EndSplineSet
Validated: 1
EndChar

StartChar: quotesingle
Encoding: 39 39 1
Width: 300
Flags: W
HStem: 480 260<80 220>
VStem: 80 140<480 740>
LayerCount: 2
Fore
SplineSet
80 480 m 1
 80 740 l 1
 220 740 l 1
 220 480 l 1
 80 480 l 1
EndSplineSet
Validated: 1
EndChar

StartChar: numbersign
Encoding: 35 35 4
Width: 820
VWidth: 0
Flags: W
HStem: 0 21G<130 273.467 423 566.467> 150 120<20 156 318 449 611 750> 450 120<70 209 371 502 664 800>
VStem: 130 140<0 140> 257 140<580 720> 423 140<0 140> 550 140<580 720>
DStem2: 130 0 270 0 0.173707 0.984797<24.319 152.236 298.552 456.882 603.198 731.115> 423 0 563 0 0.173707 0.984797<24.319 152.236 298.552 456.882 603.198 731.115>
LayerCount: 2
Fore
SplineSet
502 450 m 1xe0
 349 450 l 1
 318 270 l 1
 471 270 l 1
 502 450 l 1xe0
750 270 m 1
 750 150 l 1
 589 150 l 1
 563 0 l 1
 423 0 l 1
 449 150 l 1
 296 150 l 1
 270 0 l 1
 130 0 l 1xf4
 156 150 l 1
 20 150 l 1
 20 270 l 1
 178 270 l 1
 209 450 l 1
 70 450 l 1
 70 570 l 1
 231 570 l 1
 257 720 l 1
 397 720 l 1
 371 570 l 1
 524 570 l 1
 550 720 l 1
 690 720 l 1xea
 664 570 l 1
 800 570 l 1
 800 450 l 1
 642 450 l 1
 611 270 l 1
 750 270 l 1
EndSplineSet
Validated: 1
EndChar

StartChar: period
Encoding: 46 46 5
Width: 300
Flags: W
HStem: 0 130<80 220>
VStem: 80 140<0 130>
LayerCount: 2
Fore
SplineSet
80 0 m 1
 80 130 l 1
 220 130 l 1
 220 0 l 1
 80 0 l 1
EndSplineSet
Validated: 1
EndChar

StartChar: comma
Encoding: 44 44 6
Width: 300
Flags: W
HStem: 0 130<80 150>
VStem: 80 140<0 130> 80 69<-150 -81> 150 70<-76.8274 0>
LayerCount: 2
Fore
SplineSet
80 0 m 1xc0
 80 130 l 1
 220 130 l 1
 220 0 l 2xc0
 220 -43 196 -93 149 -150 c 1
 80 -150 l 1
 127 -94 150 -44 150 0 c 1xb0
 80 0 l 1xc0
EndSplineSet
Validated: 1
EndChar

StartChar: hyphen
Encoding: 45 45 10
Width: 360
VWidth: 0
Flags: W
HStem: 275 110<40 320>
VStem: 40 280<275 385>
LayerCount: 2
Fore
SplineSet
40 275 m 1
 40 385 l 1
 320 385 l 1
 320 275 l 1
 40 275 l 1
EndSplineSet
Validated: 1
EndChar

StartChar: slash
Encoding: 47 47 11
Width: 580
VWidth: 0
Flags: W
DStem2: 20 -80 160 -80 0.413803 0.910366<57.9324 966.644>
LayerCount: 2
Fore
SplineSet
20 -80 m 1
 420 800 l 1
 560 800 l 1
 160 -80 l 1
 20 -80 l 1
EndSplineSet
Validated: 1
EndChar

StartChar: equal
Encoding: 61 61 13
Width: 520
VWidth: 0
Flags: W
HStem: 215 110<40 480> 405 110<40 480>
LayerCount: 2
Fore
SplineSet
40 215 m 1
 40 325 l 1
 480 326 l 1
 480 216 l 1
 40 215 l 1
40 405 m 1
 40 515 l 1
 480 516 l 1
 480 406 l 1
 40 405 l 1
EndSplineSet
Validated: 1
EndChar

StartChar: plus
Encoding: 43 43 14
Width: 600
VWidth: 0
Flags: W
HStem: 315 110<20 230 370 580>
VStem: 230 140<100 315 425 620>
LayerCount: 2
Fore
SplineSet
20 315 m 1
 20 425 l 1
 230 425 l 1
 230 620 l 1
 370 620 l 1
 370 425 l 1
 580 425 l 1
 580 315 l 1
 370 315 l 1
 370 100 l 1
 230 100 l 1
 230 315 l 1
 20 315 l 1
EndSplineSet
Validated: 1
EndChar

StartChar: less
Encoding: 60 60 15
Width: 640
VWidth: 0
Flags: W
VStem: 40 130<240 480>
DStem2: 40 415 170 360 0.936329 0.351123<102.411 561.212> 170 360 40 305 0.936329 -0.351123<0 458.801>
LayerCount: 2
Fore
SplineSet
40 305 m 1
 40 415 l 1
 600 625 l 1
 600 520 l 1
 170 360 l 1
 600 200 l 1
 600 95 l 1
 40 305 l 1
EndSplineSet
Validated: 1
EndChar

StartChar: greater
Encoding: 62 62 16
Width: 640
VWidth: 0
Flags: W
VStem: 470 130<240 480>
DStem2: 40 625 40 520 0.936329 -0.351123<36.868 495.669> 40 200 40 95 0.936329 0.351123<0 458.801>
LayerCount: 2
Fore
SplineSet
600 305 m 1
 40 95 l 1
 40 200 l 1
 470 360 l 1
 40 520 l 1
 40 625 l 1
 600 415 l 1
 600 305 l 1
EndSplineSet
Validated: 1
EndChar

StartChar: percent
Encoding: 37 37 17
Width: 720
VWidth: 0
Flags: W
HStem: 5 90<498.875 571.125> 205 90<498.875 571.125> 405 90<148.875 221.125> 605 90<148.875 221.125>
VStem: 40 100<503.141 596.859> 230 100<503.141 596.859> 390 100<103.141 196.859> 580 100<103.141 196.859>
DStem2: 120 85 200 40 0.571064 0.820905<8.74442 700.446>
LayerCount: 2
Fore
SplineSet
535 205 m 0
 507 205 490 180 490 150 c 0
 490 120 507 95 535 95 c 0
 563 95 580 120 580 150 c 0
 580 180 563 205 535 205 c 0
535 5 m 0
 456 5 390 71 390 150 c 24
 390 229 456 295 535 295 c 0
 614 295 680 229 680 150 c 0
 680 71 614 5 535 5 c 0
120 85 m 5
 520 660 l 5
 600 615 l 5
 200 40 l 5
 120 85 l 5
185 605 m 0
 157 605 140 580 140 550 c 0
 140 520 157 495 185 495 c 0
 213 495 230 520 230 550 c 0
 230 580 213 605 185 605 c 0
185 405 m 0
 106 405 40 471 40 550 c 24
 40 629 106 695 185 695 c 0
 264 695 330 629 330 550 c 0
 330 471 264 405 185 405 c 0
EndSplineSet
Validated: 1
EndChar

StartChar: parenleft
Encoding: 40 40 18
Width: 380
VWidth: 0
Flags: W
HStem: 720 20G<182.5 340>
VStem: 80 140<110.247 489.531>
LayerCount: 2
Fore
SplineSet
80 300 m 0
 80 510 135 605 230 740 c 1
 340 740 l 1
 263 606 220 496 220 300 c 0
 220 104 263 -6 340 -140 c 1
 230 -140 l 1
 135 -5 80 89 80 300 c 0
EndSplineSet
Validated: 1
EndChar

StartChar: parenright
Encoding: 41 41 19
Width: 380
VWidth: 0
Flags: W
HStem: 720 20G<40 197.5>
VStem: 160 140<110.469 489.753>
LayerCount: 2
Fore
SplineSet
300 300 m 0
 300 90 245 -5 150 -140 c 1
 40 -140 l 1
 117 -6 160 104 160 300 c 0
 160 496 117 606 40 740 c 1
 150 740 l 1
 245 605 300 511 300 300 c 0
EndSplineSet
Validated: 1
EndChar

StartChar: asterisk
Encoding: 42 42 20
Width: 305
VWidth: 900
Flags: W
HStem: 455 285<112 115>
VStem: 115 80<646 740>
LayerCount: 2
Fore
SplineSet
15 600 m 1
 15 681 l 1
 115 646 l 1
 115 740 l 1
 195 740 l 1
 195 646 l 1
 295 681 l 1
 295 600 l 1
 209 568 l 1
 289 455 l 1
 192 455 l 1
 152 510 l 1
 113 455 l 1
 16 455 l 1
 97 568 l 1
 15 600 l 1
EndSplineSet
Validated: 1
EndChar

StartChar: zero
Encoding: 48 48 21
Width: 620
VWidth: 0
Flags: W
HStem: -20 112<247.51 372.49> 648 112<247.51 372.49>
VStem: 40 144<186.596 553.404> 436 144<186.596 553.404>
LayerCount: 2
Fore
SplineSet
40 370 m 0
 40 595 109 760 310 760 c 0
 511 760 580 595 580 370 c 0
 580 145 511 -20 310 -20 c 0
 109 -20 40 145 40 370 c 0
184 370 m 0
 184 234 198 92 310 92 c 0
 422 92 436 234 436 370 c 0
 436 506 422 648 310 648 c 0
 198 648 184 506 184 370 c 0
EndSplineSet
Validated: 1
EndChar

StartChar: one
Encoding: 49 49 22
Width: 620
VWidth: 0
Flags: W
HStem: 0 21G<306 450> 720 20G<336.769 450>
VStem: 306 144<0 583>
DStem2: 110 610 110 488 0.899734 0.436438<0 164.564>
LayerCount: 2
Fore
SplineSet
110 488 m 1
 110 610 l 1
 378 740 l 1
 450 740 l 1
 450 0 l 1
 306 0 l 1
 306 583 l 1
 110 488 l 1
EndSplineSet
Validated: 1
EndChar

StartChar: A
Encoding: 65 65 23
Width: 700
VWidth: 1914
Flags: W
HStem: 0 21G<20 160.332 539.668 680> 199 112<253 447> 616 124<256 444>
VStem: 20 134<0 134> 546 134<0 134>
DStem2: 20 0 154 0 0.303841 0.952723<40.7147 249.449 367.092 687.145> 444 740 350 616 0.303841 -0.952723<89.5765 409.63 527.273 736.007>
LayerCount: 2
Fore
SplineSet
253 311 m 1
 447 311 l 1
 350 616 l 1
 253 311 l 1
154 0 m 1
 20 0 l 1
 256 740 l 1
 444 740 l 1
 680 0 l 1
 546 0 l 1
 483 199 l 1
 217 199 l 1
 154 0 l 1
EndSplineSet
Validated: 1
EndChar

StartChar: bracketleft
Encoding: 91 91 24
Width: 360
VWidth: 0
Flags: W
HStem: -140 110<220 340> 630 110<220 340>
VStem: 80 260<-140 -30 630 740> 80 140<-30 630>
LayerCount: 2
Fore
SplineSet
80 -140 m 1xe0
 80 740 l 1
 340 740 l 1
 340 630 l 1xe0
 220 630 l 1
 220 -30 l 1xd0
 340 -30 l 1
 340 -140 l 1
 80 -140 l 1xe0
EndSplineSet
Validated: 1
EndChar

StartChar: bracketright
Encoding: 93 93 25
Width: 360
VWidth: 0
Flags: W
HStem: -140 110<20 140> 630 110<20 140>
VStem: 20 260<-140 -30 630 740> 140 140<-30 630>
LayerCount: 2
Fore
SplineSet
280 -140 m 1xe0
 20 -140 l 1
 20 -30 l 1xe0
 140 -30 l 1
 140 630 l 1xd0
 20 630 l 1
 20 740 l 1
 280 740 l 1
 280 -140 l 1xe0
EndSplineSet
Validated: 1
EndChar

StartChar: degree
Encoding: 176 176 26
Width: 370
VWidth: 0
Flags: W
HStem: 405 90<148.875 221.125> 605 90<148.875 221.125>
VStem: 40 100<503.141 596.859> 230 100<503.141 596.859>
LayerCount: 2
Fore
SplineSet
185 405 m 0
 106 405 40 471 40 550 c 0
 40 629 106 695 185 695 c 0
 264 695 330 629 330 550 c 0
 330 471 264 405 185 405 c 0
185 605 m 0
 157 605 140 580 140 550 c 0
 140 520 157 495 185 495 c 0
 213 495 230 520 230 550 c 0
 230 580 213 605 185 605 c 0
EndSplineSet
Validated: 1
EndChar

StartChar: H
Encoding: 72 72 27
Width: 760
VWidth: 0
Flags: W
HStem: 0 21G<80 224 536 680> 314 112<224 536> 720 20G<80 224 536 680>
VStem: 80 144<0 314 426 740> 536 144<0 314 426 740>
LayerCount: 2
Fore
SplineSet
80 0 m 1
 80 740 l 1
 224 740 l 1
 224 426 l 1
 536 426 l 1
 536 740 l 1
 680 740 l 1
 680 0 l 1
 536 0 l 1
 536 314 l 1
 224 314 l 1
 224 0 l 1
 80 0 l 1
EndSplineSet
Validated: 1
EndChar

StartChar: I
Encoding: 73 73 28
Width: 300
VWidth: 0
Flags: W
HStem: 0 21G<78 222> 720 20G<78 222>
VStem: 78 144<0 740>
LayerCount: 2
Fore
SplineSet
222 0 m 1
 78 0 l 1
 78 740 l 1
 222 740 l 1
 222 0 l 1
EndSplineSet
Validated: 1
EndChar

StartChar: E
Encoding: 69 69 29
Width: 660
VWidth: 0
Flags: W
HStem: 0 112<224 640> 314 112<224 610> 628 112<224 640>
VStem: 80 144<112 314 426 628>
CounterMasks: 1 e0
LayerCount: 2
Fore
SplineSet
80 0 m 1
 80 740 l 1
 640 740 l 1
 640 628 l 1
 224 628 l 1
 224 426 l 1
 610 426 l 1
 610 314 l 1
 224 314 l 1
 224 112 l 1
 640 112 l 1
 640 0 l 1
 80 0 l 1
EndSplineSet
Validated: 1
EndChar

StartChar: F
Encoding: 70 70 30
Width: 660
VWidth: 0
Flags: W
HStem: 0 21G<80 224> 314 112<224 610> 629 111<224 640>
VStem: 80 144<0 314 426 629>
LayerCount: 2
Fore
SplineSet
80 0 m 1
 80 740 l 1
 640 740 l 1
 640 629 l 1
 224 629 l 1
 224 426 l 1
 610 426 l 1
 610 314 l 1
 224 314 l 1
 224 0 l 1
 80 0 l 1
EndSplineSet
Validated: 1
EndChar

StartChar: L
Encoding: 76 76 31
Width: 660
VWidth: 0
Flags: W
HStem: 0 112<224 640> 720 20G<80 224>
VStem: 80 144<112 740>
LayerCount: 2
Fore
SplineSet
224 112 m 1
 640 112 l 1
 640 0 l 1
 80 0 l 1
 80 740 l 1
 224 740 l 1
 224 112 l 1
EndSplineSet
Validated: 1
EndChar

StartChar: V
Encoding: 86 86 32
Width: 700
VWidth: 1914
Flags: W
HStem: 0 124<256 444> 720 20G<20 160.364 539.636 680>
VStem: 20 134<606 740> 546 134<606 740>
DStem2: 154 740 20 740 0.303841 -0.952723<0 646.43> 350 124 444 0 0.303841 0.952723<0 646.43>
LayerCount: 2
Fore
SplineSet
154 740 m 1
 350 124 l 1
 546 740 l 1
 680 740 l 1
 444 0 l 1
 256 0 l 1
 20 740 l 1
 154 740 l 1
EndSplineSet
Validated: 1
EndChar

StartChar: T
Encoding: 84 84 33
Width: 640
VWidth: 0
Flags: W
HStem: 0 21G<248 392> 628 112<20 248 392 620>
VStem: 248 144<0 628>
LayerCount: 2
Fore
SplineSet
20 628 m 1
 20 740 l 1
 620 740 l 1
 620 628 l 1
 392 628 l 1
 392 0 l 1
 248 0 l 1
 248 628 l 1
 20 628 l 1
EndSplineSet
Validated: 1
EndChar

StartChar: X
Encoding: 88 88 34
Width: 700
VWidth: 0
Flags: W
HStem: 0 21G<20 187.696 512.304 680> 257 226<237 463> 720 20G<20 187.696 512.304 680>
VStem: 20 154<0 154 586 740> 273 154<293 447> 526 154<0 154 586 740>
DStem2: 174 740 20 740 0.564444 -0.825471<0 311.488 498.045 809.533> 20 0 174 0 0.564444 0.825471<86.9244 398.413 584.969 896.457>
CounterMasks: 1 1c
LayerCount: 2
Fore
SplineSet
174 0 m 1
 20 0 l 1
 273 370 l 1
 20 740 l 1
 174 740 l 1
 350 483 l 1
 526 740 l 1
 680 740 l 1
 427 370 l 1
 680 0 l 1
 526 0 l 1
 350 257 l 1
 174 0 l 1
EndSplineSet
Validated: 1
EndChar

StartChar: O
Encoding: 79 79 35
Width: 800
VWidth: 0
Flags: W
HStem: -20 112<307.499 492.501> 648 112<307.499 492.501>
VStem: 40 144<237.193 502.807> 616 144<237.193 502.807>
LayerCount: 2
Fore
SplineSet
40 370 m 0
 40 601 173 760 400 760 c 0
 627 760 760 601 760 370 c 0
 760 139 627 -20 400 -20 c 0
 173 -20 40 139 40 370 c 0
184 370 m 0
 184 212 255 92 400 92 c 0
 545 92 616 212 616 370 c 0
 616 528 545 648 400 648 c 0
 255 648 184 528 184 370 c 0
EndSplineSet
Validated: 1
EndChar

StartChar: Q
Encoding: 81 81 36
Width: 820
VWidth: 0
Flags: W
HStem: -20 112<307.499 472.527> 648 112<307.499 492.501>
VStem: 40 144<237.193 502.807> 616 144<232.353 502.807>
DStem2: 495 275 400 170 0.748997 -0.662574<0 96.9086 248.767 345.547>
LayerCount: 2
Fore
SplineSet
400 170 m 1
 495 275 l 1
 580 200 l 1
 604 245 616 302 616 370 c 0
 616 528 545 648 400 648 c 0
 255 648 184 528 184 370 c 0
 184 212 255 92 400 92 c 0
 426 92 451 97 474 105 c 1
 400 170 l 1
572 18 m 1
 522 -7 464 -20 400 -20 c 0
 173 -20 40 139 40 370 c 0
 40 601 173 760 400 760 c 0
 627 760 760 601 760 370 c 0
 760 264 735 177 683 109 c 1
 755 45 l 1
 660 -60 l 1
 572 18 l 1
EndSplineSet
Validated: 1
EndChar

StartChar: l
Encoding: 108 108 38
Width: 300
VWidth: 0
Flags: W
HStem: 0 21G<80 220> 720 20G<80 220>
VStem: 80 140<0 740>
LayerCount: 2
Fore
SplineSet
220 0 m 1
 80 0 l 1
 80 740 l 1
 220 740 l 1
 220 0 l 1
EndSplineSet
Validated: 1
EndChar

StartChar: two
Encoding: 50 50 39
Width: 620
VWidth: 0
Flags: W
HStem: 0 112<269 580> 648 112<233.488 368.205>
VStem: 40 144<500 595.567> 416 144<412.756 596.076>
DStem2: 60 112 269 112 0.778508 0.627634<162.708 443.465>
LayerCount: 2
Fore
SplineSet
300 648 m 0
 217 648 184 586 184 500 c 1
 40 500 l 1
 40 659 140 760 299 760 c 0
 454 760 560 654 560 500 c 0
 560 347 451 266 362 190 c 2
 269 112 l 1
 580 112 l 1
 580 0 l 1
 60 0 l 1
 60 112 l 1
 318 320 l 2
 383 373 416 433 416 500 c 0
 416 586 383 648 300 648 c 0
EndSplineSet
Validated: 1
EndChar

StartChar: C
Encoding: 67 67 40
Width: 760
VWidth: 0
Flags: W
HStem: -20 112<299.801 486.928> 648 112<299.801 486.928>
VStem: 40 144<230.648 509.352> 586 134<136 270 470 604>
LayerCount: 2
Fore
SplineSet
40 370 m 0
 40 596 167 760 386 760 c 0
 597 760 688 650 720 470 c 1
 586 470 l 1
 565 589 501 648 395 648 c 0
 249 648 184 528 184 370 c 0
 184 212 249 92 395 92 c 0
 501 92 565 151 586 270 c 1
 720 270 l 1
 688 90 597 -20 386 -20 c 0
 167 -20 40 144 40 370 c 0
EndSplineSet
Validated: 1
EndChar

StartChar: o
Encoding: 111 111 41
Width: 620
VWidth: 0
Flags: W
HStem: -20 110<241.489 378.511> 450 110<241.489 378.511>
VStem: 40 140<158.275 381.514> 440 140<158.486 381.725>
LayerCount: 2
Fore
SplineSet
40 270 m 0
 40 441 143 560 310 560 c 0
 477 560 580 441 580 270 c 0
 580 99 477 -20 310 -20 c 0
 143 -20 40 99 40 270 c 0
180 270 m 0
 180 167 219 90 310 90 c 0
 401 90 440 168 440 270 c 0
 440 373 401 450 310 450 c 0
 219 450 180 372 180 270 c 0
EndSplineSet
Validated: 1
EndChar

StartChar: N
Encoding: 78 78 42
Width: 790
VWidth: 0
Flags: W
HStem: 0 21G<80 224 537.698 710> 720 20G<80 252.302 566 710>
VStem: 80 144<0 530> 566 144<210 740>
DStem2: 240 740 224 530 0.523918 -0.851769<170.489 622.235>
LayerCount: 2
Fore
SplineSet
80 0 m 1
 80 740 l 1
 240 740 l 1
 566 210 l 1
 566 740 l 1
 710 740 l 1
 710 0 l 1
 550 0 l 1
 224 530 l 1
 224 0 l 1
 80 0 l 1
EndSplineSet
Validated: 1
EndChar

StartChar: G
Encoding: 71 71 43
Width: 800
VWidth: 0
Flags: W
HStem: -20 112<301.758 495.537> 0 21G<593.143 720> 289 132<385 586> 648 112<302.813 498.994>
VStem: 40 144<230.091 510.354> 586 134<176.428 289 500 634>
LayerCount: 2
Fore
SplineSet
395 -20 m 0xbc
 168 -20 40 139 40 370 c 0
 40 601 168 760 395 760 c 0
 581 760 689 673 720 500 c 1
 586 500 l 1
 569 599 505 648 395 648 c 0
 249 648 184 528 184 370 c 0
 184 214 249 92 390 92 c 0xbc
 508 92 586 152 586 270 c 2
 586 289 l 1
 385 289 l 1
 385 421 l 1
 720 421 l 1
 720 0 l 1
 596 0 l 1x7c
 586 70 l 1
 555 16 481 -20 395 -20 c 0xbc
EndSplineSet
Validated: 1
EndChar

StartChar: P
Encoding: 80 80 44
Width: 670
VWidth: 0
Flags: W
HStem: 0 21G<80 224> 290 112<224 445.955> 628 112<224 445.955>
VStem: 80 144<0 290 402 628> 486 144<442.244 587.756>
LayerCount: 2
Fore
SplineSet
80 0 m 1
 80 740 l 1
 430 740 l 2
 545 740 630 639 630 515 c 0
 630 391 545 290 430 290 c 2
 224 290 l 1
 224 0 l 1
 80 0 l 1
486 515 m 0
 486 591 441 628 366 628 c 2
 224 628 l 1
 224 402 l 1
 366 402 l 2
 441 402 486 439 486 515 c 0
EndSplineSet
Validated: 1
EndChar

StartChar: R
Encoding: 82 82 45
Width: 670
VWidth: 0
Flags: W
HStem: 0 21G<80 224 499.517 650> 290 112<224 358> 628 112<224 445.955>
VStem: 80 144<0 290 402 628> 486 144<442.907 587.756>
DStem2: 492 301 358 290 0.464776 -0.885428<0 274.88>
LayerCount: 2
Fore
SplineSet
486 515 m 0
 486 591 441 628 366 628 c 2
 224 628 l 1
 224 402 l 1
 366 402 l 2
 441 402 486 439 486 515 c 0
630 515 m 0
 630 407 571 329 492 301 c 1
 650 0 l 1
 510 0 l 1
 358 290 l 1
 224 290 l 1
 224 0 l 1
 80 0 l 1
 80 740 l 1
 430 740 l 2
 545 740 630 639 630 515 c 0
EndSplineSet
Validated: 1
EndChar

StartChar: D
Encoding: 68 68 46
Width: 760
VWidth: 0
Flags: W
HStem: 0 112<224 460.099> 628 112<224 460.099>
VStem: 80 144<112 628> 576 144<239.89 500.11>
LayerCount: 2
Fore
SplineSet
80 0 m 1
 80 740 l 1
 400 740 l 2
 590 740 720 580 720 370 c 0
 720 160 590 0 400 0 c 2
 80 0 l 1
576 370 m 0
 576 530 506 628 366 628 c 2
 224 628 l 1
 224 112 l 1
 366 112 l 2
 506 112 576 210 576 370 c 0
EndSplineSet
Validated: 1
EndChar

StartChar: Z
Encoding: 90 90 47
Width: 680
VWidth: 0
Flags: W
HStem: 0 112<184 660> 628 112<40 476>
DStem2: 20 112 184 112 0.662198 0.749329<108.6 688.616>
LayerCount: 2
Fore
SplineSet
660 112 m 1
 660 0 l 1
 20 0 l 1
 20 112 l 1
 476 628 l 1
 40 628 l 1
 40 740 l 1
 640 740 l 1
 640 628 l 1
 184 112 l 1
 660 112 l 1
EndSplineSet
Validated: 1
EndChar

StartChar: K
Encoding: 75 75 48
Width: 650
VWidth: 0
Flags: W
HStem: 0 21G<80 224 451.639 634> 720 20G<80 224 452.553 634>
VStem: 80 144<0 280 458 740> 466 168<0 168 572 740>
DStem2: 224 458 335 408 0.665371 0.746513<36.5305 374.198> 335 408 247 305 0.591107 -0.806594<31.0618 406.525>
LayerCount: 2
Fore
SplineSet
470 740 m 1
 634 740 l 1
 335 408 l 1
 634 0 l 1
 466 0 l 1
 247 305 l 1
 224 280 l 1
 224 0 l 1
 80 0 l 1
 80 740 l 1
 224 740 l 1
 224 458 l 1
 470 740 l 1
EndSplineSet
Validated: 1
EndChar

StartChar: U
Encoding: 85 85 49
Width: 660
VWidth: 0
Flags: W
HStem: -20 112<247.476 412.524> 720 20G<50 194 466 610>
VStem: 50 144<151.453 740> 466 144<151.453 740>
LayerCount: 2
Fore
SplineSet
50 250 m 2
 50 740 l 1
 194 740 l 1
 194 290 l 2
 194 165 211 92 330 92 c 0
 449 92 466 165 466 290 c 2
 466 740 l 1
 610 740 l 1
 610 250 l 2
 610 70 517 -20 330 -20 c 0
 143 -20 50 70 50 250 c 2
EndSplineSet
Validated: 1
EndChar

StartChar: bar
Encoding: 124 124 50
Width: 300
VWidth: 0
Flags: W
VStem: 80 140<-80 800>
LayerCount: 2
Fore
SplineSet
80 -80 m 1
 80 800 l 1
 220 800 l 1
 220 -80 l 1
 80 -80 l 1
EndSplineSet
Validated: 1
EndChar

StartChar: backslash
Encoding: 92 92 51
Width: 580
VWidth: 1220
Flags: W
DStem2: 160 800 20 800 0.413803 -0.910366<0 908.711>
LayerCount: 2
Fore
SplineSet
20 800 m 1
 160 800 l 1
 560 -80 l 1
 420 -80 l 1
 20 800 l 1
EndSplineSet
Validated: 1
EndChar

StartChar: exclamdown
Encoding: 161 161 52
Width: 300
VWidth: 1762
Flags: W
HStem: 410 130<80 220>
VStem: 80 140<-200 135.333 410 540>
LayerCount: 2
Fore
SplineSet
80 70 m 1
 110 350 l 1
 190 350 l 1
 220 70 l 1
 220 -200 l 1
 80 -200 l 1
 80 70 l 1
80 540 m 1
 220 540 l 1
 220 410 l 1
 80 410 l 1
 80 540 l 1
EndSplineSet
Validated: 1
EndChar

StartChar: f
Encoding: 102 102 54
Width: 350
VWidth: 0
Flags: W
HStem: 0 21G<90 230> 430 110<20 90 230 320> 650 110<173 328.849>
VStem: 90 140<0 430 540 639.36>
LayerCount: 2
Fore
SplineSet
274 650 m 0
 233 650 230 602 230 550 c 2
 230 540 l 1
 320 540 l 1
 320 430 l 1
 230 430 l 1
 230 0 l 1
 90 0 l 1
 90 430 l 1
 20 430 l 1
 20 540 l 1
 90 540 l 1
 90 570 l 2
 90 685 122 760 224 760 c 0
 267 760 303 755 330 745 c 1
 330 645 l 1
 308 648 289 650 274 650 c 0
EndSplineSet
Validated: 1
EndChar

StartChar: four
Encoding: 52 52 55
Width: 620
VWidth: 0
Flags: W
HStem: 0 21G<336 480> 139 112<171 336 480 580> 720 20G<323.894 480>
VStem: 336 144<0 139 251 516>
DStem2: 40 251 171 251 0.517836 0.85548<67.8366 379.982>
LayerCount: 2
Fore
SplineSet
336 740 m 1
 480 740 l 1
 480 251 l 1
 580 251 l 1
 580 139 l 1
 480 139 l 1
 480 0 l 1
 336 0 l 1
 336 139 l 1
 40 139 l 1
 40 251 l 1
 336 740 l 1
336 516 m 1
 171 251 l 1
 336 251 l 1
 336 516 l 1
EndSplineSet
Validated: 1
EndChar

StartChar: Y
Encoding: 89 89 56
Width: 700
VWidth: 0
Flags: W
HStem: 0 21G<278 422> 720 20G<20 187.643 512.357 680>
VStem: 20 154<586 740> 278 144<0 370> 526 154<586 740>
DStem2: 174 740 20 740 0.571974 -0.820272<0 312.298> 350 482 422 370 0.571974 0.820272<0 312.298>
CounterMasks: 1 38
LayerCount: 2
Fore
SplineSet
422 370 m 1
 422 0 l 1
 278 0 l 1
 278 370 l 1
 20 740 l 1
 174 740 l 1
 350 482 l 1
 526 740 l 1
 680 740 l 1
 422 370 l 1
EndSplineSet
Validated: 1
EndChar

StartChar: seven
Encoding: 55 55 57
Width: 620
VWidth: 0
Flags: W
HStem: 0 21G<136 288.434> 628 112<60 401>
DStem2: 136 0 280 0 0.388553 0.921426<55.9517 681.622>
LayerCount: 2
Fore
SplineSet
60 628 m 1
 60 740 l 1
 560 740 l 1
 560 664 l 1
 280 0 l 1
 136 0 l 1
 401 628 l 1
 60 628 l 1
EndSplineSet
Validated: 1
EndChar

StartChar: J
Encoding: 74 74 58
Width: 600
VWidth: 0
Flags: W
HStem: -20 112<216.666 343.334> 720 20G<376 520>
VStem: 40 144<128.618 220> 376 144<126.484 740>
LayerCount: 2
Fore
SplineSet
40 210 m 2
 40 220 l 1
 184 220 l 1
 184 210 l 2
 184 131 216 92 280 92 c 0
 344 92 376 131 376 210 c 2
 376 740 l 1
 520 740 l 1
 520 220 l 2
 520 60 440 -20 280 -20 c 0
 120 -20 40 48 40 210 c 2
EndSplineSet
Validated: 1
EndChar

StartChar: M
Encoding: 77 77 59
Width: 900
VWidth: 0
Flags: W
HStem: 0 134<370 530> 720 20G<80 260.469 639.531 820>
VStem: 80 144<0 450> 676 144<0 450>
DStem2: 254 740 224 450 0.307737 -0.951472<266.695 636.908> 450 134 530 0 0.307737 0.951472<0 370.214>
LayerCount: 2
Fore
SplineSet
224 0 m 1
 80 0 l 1
 80 740 l 1
 254 740 l 1
 450 134 l 1
 646 740 l 1
 820 740 l 1
 820 0 l 1
 676 0 l 1
 676 450 l 1
 530 0 l 1
 370 0 l 1
 224 450 l 1
 224 0 l 1
EndSplineSet
Validated: 1
EndChar

StartChar: c
Encoding: 99 99 60
Width: 610
VWidth: 0
Flags: W
HStem: -20 110<239.68 381.977> 450 110<239.901 381.977>
VStem: 40 140<158.899 381.101> 430 140<50 190 350 490>
LayerCount: 2
Fore
SplineSet
570 190 m 1
 547 61 460 -20 306 -20 c 0
 142 -20 40 101 40 270 c 0
 40 439 142 560 306 560 c 0
 460 560 547 479 570 350 c 1
 430 350 l 1
 420 409 380 450 309 450 c 0
 219 450 180 372 180 270 c 0
 180 168 218 90 309 90 c 0
 380 90 420 131 430 190 c 1
 570 190 l 1
EndSplineSet
Validated: 1
EndChar

StartChar: e
Encoding: 101 101 61
Width: 620
VWidth: 0
Flags: W
HStem: -20 110<239.956 388.159> 230 110<180 440> 450 110<231.692 385.334>
VStem: 40 540<231.304 339.181> 430 140<30 170>
LayerCount: 2
Fore
SplineSet
180 230 m 1xf0
 190 150 230 90 312 90 c 0
 371 90 422 124 430 170 c 1
 570 170 l 1xe8
 548 53 451 -20 306 -20 c 0
 142 -20 40 101 40 270 c 0
 40 442 144 560 312 560 c 0
 493 560 580 423 580 230 c 1
 180 230 l 1xf0
440 340 m 1
 421 408 390 450 310 450 c 0
 230 450 199 408 180 340 c 1
 440 340 l 1
EndSplineSet
Validated: 1
EndChar

StartChar: z
Encoding: 122 122 62
Width: 540
VWidth: 0
Flags: W
HStem: 0 110<180 520> 430 110<40 340>
DStem2: 20 110 180 110 0.707107 0.707107<113.137 452.548>
LayerCount: 2
Fore
SplineSet
520 110 m 1
 520 0 l 1
 20 0 l 1
 20 110 l 1
 340 430 l 1
 40 430 l 1
 40 540 l 1
 500 540 l 1
 500 430 l 1
 180 110 l 1
 520 110 l 1
EndSplineSet
Validated: 1
EndChar

StartChar: B
Encoding: 66 66 63
Width: 670
VWidth: 0
Flags: W
HStem: 0 112<224 460.92> 329 112<224 425.935> 628 112<224 429.754>
VStem: 80 144<112 329 441 628> 456 144<472.15 602.136> 496 134<147.8 293.506>
LayerCount: 2
Fore
SplineSet
600 540 m 0xf8
 600 471 568 411 523 385 c 1
 594 359 630 304 630 220 c 0xf4
 630 97 554 0 440 0 c 2
 80 0 l 1
 80 740 l 1
 420 740 l 2
 525 740 600 644 600 540 c 0xf8
496 220 m 0
 496 286 460 329 396 329 c 2
 224 329 l 1
 224 112 l 1
 396 112 l 2
 460 112 496 154 496 220 c 0
456 539 m 0xf8
 456 590 426 628 376 628 c 2
 224 628 l 1
 224 441 l 1
 376 441 l 2
 425 441 456 489 456 539 c 0xf8
EndSplineSet
Validated: 1
EndChar

StartChar: W
Encoding: 87 87 64
Width: 1030
VWidth: 0
Flags: W
HStem: 0 215<98.5 491.5 538.5 931.5> 525 215<318.5 711.5>
VStem: 20 144<596 740> 866 144<596 740>
DStem2: 164 740 20 740 0.243769 -0.969833<0 541.096> 295 215 384 0 0.242101 0.970251<0 354.04> 604 740 515 525 0.242101 -0.970251<187.057 541.097> 735 215 824 0 0.243769 0.969833<0 541.096>
LayerCount: 2
Fore
SplineSet
384 0 m 1
 206 0 l 1
 20 740 l 1
 164 740 l 1
 295 215 l 1
 426 740 l 1
 604 740 l 1
 735 215 l 1
 866 740 l 1
 1010 740 l 1
 824 0 l 1
 646 0 l 1
 515 525 l 1
 384 0 l 1
EndSplineSet
Validated: 1
EndChar

StartChar: d
Encoding: 100 100 65
Width: 670
VWidth: 0
Flags: W
HStem: -20 110<238.478 384.401> 0 21G<450 590> 450 110<235.46 384.401> 720 20G<450 590>
VStem: 40 130<166.264 375.483> 450 140<0 60 164.674 375.326 480 740>
LayerCount: 2
Fore
SplineSet
310 450 m 0xbc
 216 450 170 372 170 270 c 0
 170 168 216 90 310 90 c 0
 404 90 450 168 450 270 c 0
 450 372 404 450 310 450 c 0xbc
290 560 m 0
 364 560 422 528 450 480 c 1
 450 740 l 1
 590 740 l 1
 590 0 l 1
 450 0 l 1x7c
 450 60 l 1
 422 12 364 -20 290 -20 c 0
 134 -20 40 98 40 261 c 0
 40 422 136 560 290 560 c 0
EndSplineSet
Validated: 1
EndChar

StartChar: b
Encoding: 98 98 66
Width: 670
VWidth: 0
Flags: W
HStem: -20 110<285.599 431.522> 0 21G<80 220> 450 110<285.599 434.54> 720 20G<80 220>
VStem: 80 140<0 60 164.674 375.326 480 740> 500 130<166.264 375.483>
LayerCount: 2
Fore
SplineSet
360 90 m 0xbc
 454 90 500 168 500 270 c 0
 500 372 454 450 360 450 c 0
 266 450 220 372 220 270 c 0
 220 168 266 90 360 90 c 0xbc
380 -20 m 0
 306 -20 248 12 220 60 c 1
 220 0 l 1
 80 0 l 1x7c
 80 740 l 1
 220 740 l 1
 220 480 l 1
 248 528 306 560 380 560 c 0
 534 560 630 422 630 261 c 0
 630 98 536 -20 380 -20 c 0
EndSplineSet
Validated: 1
EndChar

StartChar: p
Encoding: 112 112 67
Width: 670
VWidth: 0
Flags: W
HStem: -20 110<285.599 434.54> 450 110<285.599 431.522> 520 20G<80 220>
VStem: 80 140<-200 60 164.674 375.326 480 540> 500 130<164.517 373.736>
LayerCount: 2
Fore
SplineSet
360 90 m 0xd8
 454 90 500 168 500 270 c 0
 500 372 454 450 360 450 c 0
 266 450 220 372 220 270 c 0
 220 168 266 90 360 90 c 0xd8
380 -20 m 0
 306 -20 248 12 220 60 c 1
 220 -200 l 1
 80 -200 l 1
 80 540 l 1
 220 540 l 1xb8
 220 480 l 1
 248 528 306 560 380 560 c 0
 536 560 630 442 630 279 c 0
 630 118 534 -20 380 -20 c 0
EndSplineSet
Validated: 1
EndChar

StartChar: q
Encoding: 113 113 68
Width: 670
VWidth: 0
Flags: W
HStem: -20 110<235.46 384.401> 450 110<238.478 384.401> 520 20G<450 590>
VStem: 40 130<164.517 373.736> 450 140<-200 60 164.674 375.326 480 540>
LayerCount: 2
Fore
SplineSet
310 450 m 0xd8
 216 450 170 372 170 270 c 0
 170 168 216 90 310 90 c 0
 404 90 450 168 450 270 c 0
 450 372 404 450 310 450 c 0xd8
290 560 m 0
 364 560 422 528 450 480 c 1
 450 540 l 1
 590 540 l 1xb8
 590 -200 l 1
 450 -200 l 1
 450 60 l 1
 422 12 364 -20 290 -20 c 0
 136 -20 40 118 40 279 c 0
 40 442 134 560 290 560 c 0
EndSplineSet
Validated: 1
EndChar

StartChar: g
Encoding: 103 103 69
Width: 670
VWidth: 0
Flags: W
HStem: -240 110<240.158 402.25> -20 110<235.46 384.401> 450 110<238.478 384.401> 520 20G<450 590>
VStem: 40 130<164.517 373.736> 60 140<-190 -50> 450 140<-79.8287 60 164.674 375.326 480 540>
LayerCount: 2
Fore
SplineSet
310 450 m 0xea
 216 450 170 372 170 270 c 0
 170 168 216 90 310 90 c 0
 404 90 450 168 450 270 c 0
 450 372 404 450 310 450 c 0xea
315 -130 m 0
 411 -130 450 -85 450 10 c 2
 450 60 l 1
 422 12 364 -20 290 -20 c 0
 136 -20 40 118 40 279 c 0
 40 442 134 560 290 560 c 0xea
 364 560 422 528 450 480 c 1
 450 540 l 1
 590 540 l 1
 590 10 l 2
 590 -153 481 -240 315 -240 c 0
 176 -240 80 -169 60 -50 c 1
 200 -50 l 1xd6
 209 -100 256 -130 315 -130 c 0
EndSplineSet
Validated: 1
EndChar

StartChar: u
Encoding: 117 117 70
Width: 650
VWidth: 0
Flags: W
HStem: -20 110<249.047 373.766> 0 21G<430 570> 520 20G<70 210 430 570>
VStem: 70 140<127.969 540> 430 140<0 60 127.969 540>
LayerCount: 2
Fore
SplineSet
430 60 m 1x78
 413 15 352 -20 290 -20 c 0
 169 -20 70 38 70 160 c 2
 70 540 l 1
 210 540 l 1
 210 210 l 2
 210 130 247 90 320 90 c 0xb8
 393 90 430 130 430 210 c 2
 430 540 l 1
 570 540 l 1
 570 0 l 1
 430 0 l 1
 430 60 l 1x78
EndSplineSet
Validated: 1
EndChar

StartChar: n
Encoding: 110 110 71
Width: 650
VWidth: 0
Flags: W
HStem: 0 21G<80 220 440 580> 450 110<276.234 400.953> 520 20G<80 220>
VStem: 80 140<0 412.031 480 540> 440 140<0 412.031>
LayerCount: 2
Fore
SplineSet
220 480 m 1xb8
 237 525 298 560 360 560 c 0
 481 560 580 502 580 380 c 2
 580 0 l 1
 440 0 l 1
 440 330 l 2
 440 410 403 450 330 450 c 0xd8
 257 450 220 410 220 330 c 2
 220 0 l 1
 80 0 l 1
 80 540 l 1
 220 540 l 1
 220 480 l 1xb8
EndSplineSet
Validated: 1
EndChar

StartChar: m
Encoding: 109 109 72
Width: 1010
VWidth: 0
Flags: W
HStem: 0 21G<80 220 440 580 800 940> 450 110<271.882 402.358 616.564 761.344> 520 20G<80 220>
VStem: 80 140<0 412.031 480 540> 440 140<0 412.031> 800 140<0 408.819>
CounterMasks: 1 1c
LayerCount: 2
Fore
SplineSet
220 480 m 1xbc
 238 529 293 560 360 560 c 0
 445 560 505 533 542 480 c 1
 585 533 645 560 720 560 c 0
 844 560 940 509 940 380 c 2
 940 0 l 1
 800 0 l 1
 800 330 l 2
 800 410 763 450 690 450 c 0
 617 450 580 410 580 330 c 2
 580 0 l 1
 440 0 l 1
 440 330 l 2
 440 410 403 450 330 450 c 0xdc
 257 450 220 410 220 330 c 2
 220 0 l 1
 80 0 l 1
 80 540 l 1
 220 540 l 1
 220 480 l 1xbc
EndSplineSet
Validated: 1
EndChar

StartChar: eight
Encoding: 56 56 73
Width: 620
VWidth: 0
Flags: W
HStem: -20 112<237.752 382.082> 344 112<246.036 373.964> 648 112<242.525 377.475>
VStem: 40 144<146.273 294.333> 70 144<488.302 618.038> 406 144<487.626 618.038> 436 144<146.273 294.994>
LayerCount: 2
Fore
SplineSet
310 -20 m 0xe2
 147 -20 40 64 40 220 c 0xf2
 40 302 80 362 160 400 c 1
 100 432 70 484 70 555 c 0
 70 684 172 760 310 760 c 0
 448 760 550 684 550 555 c 0xec
 550 482 522 430 465 400 c 1
 542 364 580 304 580 220 c 0
 580 64 472 -20 310 -20 c 0xe2
310 344 m 0
 235 344 184 296 184 220 c 0
 184 145 236 92 310 92 c 0
 384 92 436 145 436 220 c 0
 436 296 385 344 310 344 c 0
310 648 m 0
 250 648 214 615 214 555 c 0
 214 495 250 456 310 456 c 0
 370 456 406 495 406 555 c 0xec
 406 615 370 648 310 648 c 0
EndSplineSet
Validated: 1
EndChar

StartChar: h
Encoding: 104 104 74
Width: 650
VWidth: 0
Flags: W
HStem: 0 21G<80 220 440 580> 450 110<276.234 400.953> 720 20G<80 220>
VStem: 80 140<0 412.031 480 740> 440 140<0 412.031>
LayerCount: 2
Fore
SplineSet
220 480 m 1
 237 525 298 560 360 560 c 0
 481 560 580 502 580 380 c 2
 580 0 l 1
 440 0 l 1
 440 330 l 2
 440 410 403 450 330 450 c 0
 257 450 220 410 220 330 c 2
 220 0 l 1
 80 0 l 1
 80 740 l 1
 220 740 l 1
 220 480 l 1
EndSplineSet
Validated: 1
EndChar

StartChar: r
Encoding: 114 114 75
Width: 410
VWidth: 0
Flags: W
HStem: 0 21G<60 200> 425 135<256.138 389.014> 520 20G<60 200>
VStem: 60 140<0 388.752 480 540>
LayerCount: 2
Fore
SplineSet
390 415 m 1xd0
 365 422 338 425 310 425 c 0xd0
 237 425 200 387 200 310 c 2
 200 0 l 1
 60 0 l 1
 60 540 l 1
 200 540 l 1xb0
 200 480 l 1
 215 521 277 560 330 560 c 0
 354 560 373 558 390 555 c 1
 390 415 l 1xd0
EndSplineSet
Validated: 1
EndChar

StartChar: k
Encoding: 107 107 76
Width: 560
VWidth: 0
Flags: W
HStem: 0 21G<80 220 374.834 540> 520 20G<342.5 520> 720 20G<80 220>
VStem: 80 140<0 199 380 740> 360 160<380 540> 390 150<0 150>
DStem2: 220 380 311 303 0.660529 0.750801<2.29644 212.602> 311 303 230 211 0.602945 -0.797783<24.5575 289.361>
LayerCount: 2
Fore
SplineSet
360 540 m 1xf8
 520 540 l 1xf8
 311 303 l 1
 540 0 l 1
 390 0 l 1xf4
 230 211 l 1
 220 199 l 1
 220 0 l 1
 80 0 l 1
 80 740 l 1
 220 740 l 1
 220 380 l 1
 360 540 l 1xf8
EndSplineSet
Validated: 1
EndChar

StartChar: a
Encoding: 97 97 77
Width: 590
VWidth: 0
Flags: W
HStem: -20 110<197.933 330.05> 0 21G<396.667 530> 230 110<212.142 388.641> 450 110<226.295 363.398>
VStem: 40 140<109.422 200.092> 390 140<130.992 224.979 330 421.851>
LayerCount: 2
Fore
SplineSet
245 -20 m 0xbc
 128 -20 40 32 40 152 c 0
 40 272 165 340 295 340 c 0
 325 340 357 337 390 330 c 1
 390 360 l 2
 390 420 360 450 295 450 c 0
 230 450 200 418 200 370 c 1
 60 370 l 1
 60 489 156 560 296 560 c 0
 446 560 530 477 530 340 c 2
 530 0 l 1
 400 0 l 1x7c
 390 60 l 1
 365 16 314 -20 245 -20 c 0xbc
265 90 m 0xbc
 342 90 390 127 390 200 c 2
 390 220 l 1
 365 227 340 230 315 230 c 4
 246 230 180 213 180 153 c 0
 180 108 223 90 265 90 c 0xbc
EndSplineSet
Validated: 1
EndChar

StartChar: t
Encoding: 116 116 78
Width: 350
VWidth: 0
Flags: W
HStem: -20 110<173 328.849> 430 110<20 90 230 320>
VStem: 90 140<100.64 430 540 690>
LayerCount: 2
Fore
SplineSet
230 190 m 2
 230 138 233 90 274 90 c 0
 289 90 308 92 330 95 c 1
 330 -5 l 1
 303 -15 267 -20 224 -20 c 0
 122 -20 90 55 90 170 c 2
 90 430 l 1
 20 430 l 1
 20 540 l 1
 90 540 l 1
 90 690 l 1
 230 690 l 1
 230 540 l 1
 320 540 l 1
 320 430 l 1
 230 430 l 1
 230 190 l 2
EndSplineSet
Validated: 1
EndChar

StartChar: S
Encoding: 83 83 79
Width: 680
VWidth: 0
Flags: W
HStem: -20 112<239.78 441.479> 648 112<249.298 431.089>
VStem: 40 144<144.59 220> 60 144<476.737 602.746> 476 144<530 604.327> 496 144<143.368 266.061>
LayerCount: 2
Fore
SplineSet
40 220 m 1xe4
 184 220 l 1
 184 135 236 92 340 92 c 0
 444 92 496 135 496 220 c 0xe4
 496 268 446 301 344 319 c 0
 186 347 60 376 60 532 c 0
 60 677 183 760 340 760 c 0
 499 760 620 677 620 530 c 1
 476 530 l 1
 476 609 431 648 340 648 c 0
 249 648 204 609 204 530 c 0xd8
 204 462 267 445 340 432 c 0
 494 405 640 367 640 220 c 0
 640 60 540 -20 340 -20 c 0
 166 -20 40 60 40 220 c 1xe4
EndSplineSet
Validated: 1
EndChar

StartChar: dollar
Encoding: 36 36 80
Width: 680
VWidth: 0
Flags: W
HStem: -18 114<236 288 392 443.196> 643 114<241.74 288 392 438.26>
VStem: 40 144<145.928 221> 60 144<479.057 605.333> 288 104<-100 -16.585 96 304 449 643 754.47 840> 476 144<531 604.785> 496 144<144.513 263.433>
LayerCount: 2
Fore
SplineSet
392 304 m 1xca
 392 96 l 1
 461 109 496 151 496 221 c 0
 496 258 461 285 392 304 c 1xca
288 449 m 1
 288 643 l 1
 232 630 204 593 204 531 c 0xd8
 204 480 240 463 288 449 c 1
288 840 m 1
 392 840 l 1
 392 757 l 1
 519 742 620 663 620 531 c 1
 476 531 l 1xdc
 476 593 448 630 392 643 c 1
 392 427 l 1
 522 398 640 354 640 221 c 0
 640 75 557 -5 392 -18 c 1
 392 -100 l 1
 288 -100 l 1
 288 -18 l 1
 144 -4 40 75 40 221 c 1
 184 221 l 1xea
 184 151 219 109 288 96 c 1
 288 325 l 1
 160 353 60 395 60 532 c 0
 60 663 161 742 288 757 c 1
 288 840 l 1
EndSplineSet
Validated: 1
EndChar

StartChar: s
Encoding: 115 115 81
Width: 550
VWidth: 0
Flags: W
HStem: -20 110<203.996 346.004> 450 110<219.136 330.628>
VStem: 60 140<346.442 431.093> 370 140<114.688 192.517>
LayerCount: 2
Fore
SplineSet
510 160 m 0
 510 37 406 -20 275 -20 c 0
 144 -20 40 37 40 160 c 1
 180 160 l 1
 180 115 223 90 275 90 c 0
 327 90 370 114 370 160 c 0
 370 188 338 208 275 220 c 0
 132 247 60 300 60 380 c 0
 60 495 154 560 275 560 c 0
 396 560 490 495 490 380 c 1
 350 380 l 1
 350 424 320 450 275 450 c 0
 232 450 200 424 200 384 c 0
 200 346 229 338 275 330 c 0
 398 308 510 278 510 160 c 0
EndSplineSet
Validated: 1
EndChar

StartChar: w
Encoding: 119 119 82
Width: 850
VWidth: 0
Flags: W
HStem: 0 185<67.5 782.5> 333 207<236.5 613.5>
VStem: 20 140<400 540> 690 140<400 540>
DStem2: 160 540 20 540 0.250962 -0.967997<0 366.225> 250 185 340 0 0.245747 0.969334<0 186.467> 510 540 425 333 0.245747 -0.969334<179.764 366.231> 600 185 690 0 0.250962 0.967997<0 366.225>
LayerCount: 2
Fore
SplineSet
160 0 m 1
 20 540 l 1
 160 540 l 1
 250 185 l 1
 340 540 l 1
 510 540 l 1
 600 185 l 1
 690 540 l 1
 830 540 l 1
 690 0 l 1
 510 0 l 1
 425 333 l 1
 340 0 l 1
 160 0 l 1
EndSplineSet
Validated: 1
EndChar

StartChar: v
Encoding: 118 118 83
Width: 580
VWidth: 0
Flags: W
HStem: 0 127<190 390> 520 20G<20 166.295 413.705 560>
VStem: 20 140<400 540> 420 140<400 540>
DStem2: 160 540 20 540 0.300286 -0.953849<0 432.977> 290 127 390 0 0.300286 0.953849<0 432.977>
LayerCount: 2
Fore
SplineSet
20 540 m 1
 160 540 l 1
 290 127 l 1
 420 540 l 1
 560 540 l 1
 390 0 l 1
 190 0 l 1
 20 540 l 1
EndSplineSet
Validated: 1
EndChar

StartChar: y
Encoding: 121 121 84
Width: 580
VWidth: 0
Flags: W
HStem: -240 110<60.6874 192.46> 520 20G<20 167.523 413.693 565>
VStem: 420 145<395 540>
DStem2: 159 540 20 540 0.391862 -0.920024<0 382.628> 250 0 395 0 0.300286 0.953849<-119.054 0 197.041 566.127>
LayerCount: 2
Fore
SplineSet
20 540 m 1
 159 540 l 1
 309 188 l 1
 420 540 l 1
 565 540 l 1
 395 0 l 2
 352 -136 291 -240 140 -240 c 0
 99 -240 72 -237 60 -230 c 1
 60 -125 l 1
 77 -128 100 -130 129 -130 c 0
 204 -130 228 -70 250 0 c 1
 20 540 l 1
EndSplineSet
Validated: 1
EndChar

StartChar: x
Encoding: 120 120 85
Width: 580
VWidth: 0
Flags: W
HStem: 0 21G<20 184.458 395.542 560> 520 20G<20 184.458 395.542 560>
VStem: 20 150<0 150 390 540> 215 150<195 345> 410 150<0 150 390 540>
DStem2: 170 540 20 540 0.585491 -0.810679<0 204.832 373.453 578.285> 20 0 170 0 0.585491 0.810679<87.8236 292.655 461.276 666.108>
CounterMasks: 1 38
LayerCount: 2
Fore
SplineSet
170 0 m 1
 20 0 l 1
 215 270 l 1
 20 540 l 1
 170 540 l 1
 290 374 l 1
 410 540 l 1
 560 540 l 1
 365 270 l 1
 560 0 l 1
 410 0 l 1
 290 166 l 1
 170 0 l 1
EndSplineSet
Validated: 1
EndChar

StartChar: cent
Encoding: 162 162 86
Width: 610
VWidth: 0
Flags: W
VStem: 40 140<157.614 382.386> 258 104<-100 -12.2155 101 439 552.216 620> 430 140<135.125 190 350 404.875>
LayerCount: 2
Fore
SplineSet
258 439 m 1
 206 415 180 359 180 270 c 0
 180 181 206 125 258 101 c 1
 258 439 l 1
40 270 m 0
 40 426 125 533 258 556 c 1
 258 620 l 1
 362 620 l 1
 362 556 l 1
 479 539 551 463 570 350 c 1
 430 350 l 1
 423 396 400 426 362 441 c 1
 362 99 l 1
 400 114 423 144 430 190 c 1
 570 190 l 1
 551 77 479 1 362 -16 c 1
 362 -100 l 1
 258 -100 l 1
 258 -16 l 1
 125 7 40 114 40 270 c 0
EndSplineSet
Validated: 1
EndChar

StartChar: yen
Encoding: 165 165 87
Width: 700
VWidth: 0
Flags: W
HStem: 0 21G<278 422> 100 110<60 278 422 640> 260 110<60 278 422 640> 720 20G<20 187.643 512.357 680>
VStem: 20 154<586 740> 278 144<0 100 210 260> 526 154<586 740>
DStem2: 174 740 20 740 0.571974 -0.820272<0 312.298> 350 482 422 370 0.571974 0.820272<0 312.298>
CounterMasks: 1 0e
LayerCount: 2
Fore
SplineSet
60 260 m 1
 60 370 l 1
 278 370 l 1
 20 740 l 1
 174 740 l 1
 350 482 l 1
 526 740 l 1
 680 740 l 1
 422 370 l 1
 640 370 l 1
 640 260 l 1
 422 260 l 1
 422 210 l 1
 640 210 l 1
 640 100 l 1
 422 100 l 1
 422 0 l 1
 278 0 l 1
 278 100 l 1
 60 100 l 1
 60 210 l 1
 278 210 l 1
 278 260 l 1
 60 260 l 1
EndSplineSet
Validated: 1
EndChar

StartChar: underscore
Encoding: 95 95 88
Width: 560
VWidth: 0
Flags: W
HStem: -200 110<-20 580>
LayerCount: 2
Fore
SplineSet
-20 -90 m 1
 580 -90 l 1
 580 -200 l 1
 -20 -200 l 1
 -20 -90 l 1
EndSplineSet
Validated: 1
EndChar

StartChar: grave
Encoding: 96 96 89
Width: 260
VWidth: 0
Flags: W
HStem: 590 170<130 180>
VStem: 20 220
LayerCount: 2
Fore
SplineSet
20 760 m 1
 180 760 l 1
 240 590 l 1
 130 590 l 1
 20 760 l 1
EndSplineSet
Validated: 1
EndChar

StartChar: nine
Encoding: 57 57 90
Width: 620
VWidth: 0
Flags: W
HStem: -20 112<226.157 371.109> 240 112<233.59 377.871> 648 112<232.897 378.21>
VStem: 30 144<414.387 585.82> 446 139<185.506 331>
LayerCount: 2
Fore
SplineSet
194 160 m 1
 201 120 247 92 295 92 c 0
 396 92 446 172 446 331 c 1
 411 270 358 240 288 240 c 0
 143 240 30 353 30 502 c 0
 30 659 146 760 305 760 c 0
 492 760 585 627 585 360 c 0
 585 107 488 -20 295 -20 c 0
 167 -20 70 47 50 160 c 1
 194 160 l 1
305 648 m 0
 221 648 174 586 174 500 c 0
 174 414 221 352 305 352 c 0
 389 352 436 414 436 500 c 0
 436 586 389 648 305 648 c 0
EndSplineSet
Validated: 1
EndChar

StartChar: six
Encoding: 54 54 91
Width: 620
VWidth: 0
Flags: W
HStem: -20 112<241.79 387.103> 388 112<242.129 386.41> 648 112<248.891 393.843>
VStem: 35 139<409 554.494> 446 144<154.18 325.613>
LayerCount: 2
Fore
SplineSet
426 580 m 1
 419 620 373 648 325 648 c 0
 224 648 174 568 174 409 c 1
 209 470 262 500 332 500 c 0
 477 500 590 387 590 238 c 0
 590 81 474 -20 315 -20 c 0
 128 -20 35 113 35 380 c 0
 35 633 132 760 325 760 c 0
 453 760 550 693 570 580 c 1
 426 580 l 1
315 92 m 0
 399 92 446 154 446 240 c 0
 446 326 399 388 315 388 c 0
 231 388 184 326 184 240 c 0
 184 154 231 92 315 92 c 0
EndSplineSet
Validated: 1
EndChar

StartChar: three
Encoding: 51 51 92
Width: 620
VWidth: 0
Flags: W
HStem: -20 112<237.752 382.082> 344 112<240 363.363> 555 21G<70 214> 648 112<242.525 377.673>
VStem: 40 144<146.541 220> 406 144<492.86 617.874> 436 144<146.273 288.32>
LayerCount: 2
Fore
SplineSet
580 220 m 0xfa
 580 64 472 -20 310 -20 c 0
 147 -20 40 64 40 220 c 1
 184 220 l 1
 184 145 236 92 310 92 c 0
 384 92 436 145 436 220 c 0xfa
 436 303 371 344 240 344 c 1
 240 456 l 1
 336 456 406 473 406 553 c 0
 406 615 371 648 310 648 c 0
 250 648 214 615 214 555 c 1
 70 555 l 1
 70 684 172 760 310 760 c 0
 448 760 550 684 550 555 c 0xfc
 550 482 522 430 465 400 c 1
 542 364 580 304 580 220 c 0xfa
EndSplineSet
Validated: 1
EndChar

StartChar: braceleft
Encoding: 123 123 93
Width: 370
VWidth: 900
Flags: W
HStem: -140 110<271.152 350> 630 110<267.545 350>
VStem: 120 130<-7.21056 160.811 439.94 613.879>
LayerCount: 2
Fore
SplineSet
120 2 m 0
 120 119 106 209 20 240 c 1
 20 360 l 1
 101 389 120 478 120 588 c 0
 120 668 146 740 220 740 c 2
 350 740 l 1
 350 630 l 1
 310 630 l 2
 254 630 250 571 250 505 c 0
 250 418 225 325 160 300 c 1
 220 277 250 211 250 100 c 0
 250 13 270 -30 310 -30 c 2
 350 -30 l 1
 350 -140 l 1
 220 -140 l 2
 154 -140 120 -63 120 2 c 0
EndSplineSet
Validated: 1
EndChar

StartChar: braceright
Encoding: 125 125 94
Width: 370
VWidth: 900
Flags: W
HStem: -140 110<20 98.8477> 630 110<20 102.455>
VStem: 120 130<-8.59961 162.087 439.781 614.098>
LayerCount: 2
Fore
SplineSet
250 608 m 0
 250 484 263 392 350 360 c 1
 350 240 l 1
 271 211 250 129 250 21 c 0
 250 -58 224 -140 150 -140 c 2
 20 -140 l 1
 20 -30 l 1
 60 -30 l 2
 100 -30 120 13 120 100 c 0
 120 211 150 277 210 300 c 1
 145 325 120 418 120 505 c 0
 120 571 116 630 60 630 c 2
 20 630 l 1
 20 740 l 1
 150 740 l 2
 216 740 250 673 250 608 c 0
EndSplineSet
Validated: 1
EndChar

StartChar: asciicircum
Encoding: 94 94 95
Width: 440
VWidth: 0
Flags: W
HStem: 600 100<160 280>
DStem2: 20 420 130 420 0.447214 0.894427<49.1935 250.44> 280 700 220 600 0.447214 -0.894427<62.6099 263.856>
LayerCount: 2
Fore
SplineSet
130 420 m 1
 20 420 l 1
 160 700 l 1
 280 700 l 1
 420 420 l 1
 310 420 l 1
 220 600 l 1
 130 420 l 1
EndSplineSet
Validated: 1
EndChar

StartChar: brokenbar
Encoding: 166 166 96
Width: 240
VWidth: 0
Flags: W
VStem: 50 140<-80 310 410 800>
LayerCount: 2
Fore
SplineSet
50 -80 m 1
 50 310 l 1
 190 310 l 1
 190 -80 l 1
 50 -80 l 1
50 410 m 1
 50 800 l 1
 190 800 l 1
 190 410 l 1
 50 410 l 1
EndSplineSet
Validated: 1
EndChar

StartChar: mu
Encoding: 181 181 97
Width: 620
VWidth: 0
Flags: W
HStem: -20 110<236.62 383.38> 0 21G<420 560> 520 20G<60 200 420 560>
VStem: 60 140<-200 40 127.969 540> 420 140<0 40 127.969 540>
LayerCount: 2
Fore
SplineSet
310 -20 m 0xb8
 263 -20 212 6 200 40 c 1
 200 -200 l 1
 60 -200 l 1
 60 540 l 1
 200 540 l 1
 200 210 l 2
 200 130 237 90 310 90 c 0xb8
 383 90 420 130 420 210 c 2
 420 540 l 1
 560 540 l 1
 560 0 l 1
 420 0 l 1x78
 420 40 l 1
 408 6 357 -20 310 -20 c 0xb8
EndSplineSet
Validated: 1
EndChar

StartChar: at
Encoding: 64 64 98
Width: 1000
VWidth: 0
Flags: W
HStem: -200 120<380.111 670.289> 50 90<440.928 558.642> 440 110<442.019 558.869> 650 110<383.517 627.387>
VStem: 40 140<141.761 433.919> 250 140<199.831 379.063> 610 140<80 120 200.709 379.714 480 530> 820 140<141.117 442.087>
LayerCount: 2
Fore
SplineSet
500 -80 m 0
 564 -80 688 -60 730 -40 c 1
 730 -160 l 1
 669 -187 585 -200 480 -200 c 0
 210 -200 40 19 40 290 c 0
 40 556 239 760 504 760 c 0
 778 760 960 570 960 290 c 0
 960 138 895 -30 750 -30 c 2
 610 -30 l 1
 610 120 l 1
 588 73 544 50 478 50 c 0
 341 50 250 150 250 291 c 0
 250 431 344 550 480 550 c 0
 536 550 591 519 610 480 c 1
 610 530 l 1
 750 530 l 1
 750 80 l 1
 806 80 820 225 820 290 c 0
 820 509 718 650 506 650 c 0
 296 650 180 504 180 288 c 0
 180 72 290 -80 500 -80 c 0
500 440 m 0
 430 440 390 365 390 290 c 0
 390 214 430 140 500 140 c 0
 570 140 610 215 610 290 c 0
 610 366 570 440 500 440 c 0
EndSplineSet
Validated: 1
EndChar

StartChar: paragraph
Encoding: 182 182 99
Width: 580
VWidth: 0
Flags: W
HStem: 0 21G<360 500> 720 20G<178 500>
VStem: 40 460<391.561 618.439> 360 140<0 270>
LayerCount: 2
Fore
SplineSet
40 505 m 0xe0
 40 638 116 740 240 740 c 2
 500 740 l 1
 500 0 l 1
 360 0 l 1
 360 270 l 1xd0
 240 270 l 2
 116 270 40 372 40 505 c 0xe0
EndSplineSet
Validated: 1
EndChar

StartChar: question
Encoding: 63 63 100
Width: 560
Flags: W
HStem: 0 130<210 350> 650 110<215.655 344.345>
VStem: 40 140<520 613.134> 210 140<0 130 190 282.656> 380 140<446.685 613.288>
CounterMasks: 1 38
LayerCount: 2
Fore
SplineSet
280 760 m 0
 424 760 520 665 520 520 c 0
 520 459 493 405 440 360 c 0
 380 310 350 260 350 210 c 2
 350 190 l 1
 210 190 l 1
 210 220 l 2
 210 283 259 346 300 380 c 0
 353 425 380 472 380 520 c 0
 380 607 347 650 280 650 c 0
 213 650 180 607 180 520 c 1
 40 520 l 1
 40 665 136 760 280 760 c 0
210 0 m 1
 210 130 l 1
 350 130 l 1
 350 0 l 1
 210 0 l 1
EndSplineSet
Validated: 1
EndChar

StartChar: section
Encoding: 167 167 101
Width: 550
VWidth: 0
Flags: W
HStem: -50 110<219.372 330.864> 650 110<219.136 330.628>
VStem: 40 140<317.483 397.113> 60 140<79.8131 130 543.277 631.093> 350 140<78.9065 166.723 580 630.187> 370 140<312.887 392.517>
LayerCount: 2
Fore
SplineSet
275 420 m 1xe4
 223 420 180 396 180 350 c 0
 180 322 212 302 275 290 c 1
 327 290 370 314 370 360 c 0
 370 388 338 408 275 420 c 1xe4
275 60 m 0
 318 60 350 86 350 126 c 0
 350 170 321 172 275 180 c 0
 152 202 40 232 40 350 c 0xe8
 40 409 62 455 107 486 c 1
 76 511 60 543 60 580 c 0
 60 695 154 760 275 760 c 0
 396 760 490 695 490 580 c 1
 350 580 l 1xd8
 350 624 320 650 275 650 c 0
 232 650 200 624 200 584 c 0
 200 540 229 538 275 530 c 0
 398 508 510 478 510 360 c 0xd4
 510 301 488 255 443 224 c 1
 474 199 490 167 490 130 c 0
 490 15 396 -50 275 -50 c 0
 154 -50 60 15 60 130 c 1
 200 130 l 1xd8
 200 86 230 60 275 60 c 0
EndSplineSet
Validated: 1
EndChar

StartChar: dieresis
Encoding: 168 168 102
Width: 490
Flags: W
HStem: 640 130<60 200 290 430>
VStem: 60 140<640 770> 290 140<640 770>
LayerCount: 2
Fore
SplineSet
60 640 m 1
 60 770 l 1
 200 770 l 1
 200 640 l 1
 60 640 l 1
290 640 m 1
 290 770 l 1
 430 770 l 1
 430 640 l 1
 290 640 l 1
EndSplineSet
Validated: 1
EndChar

StartChar: dotlessi
Encoding: 305 305 108
Width: 300
VWidth: 0
Flags: W
HStem: 0 21G<80 220> 520 20G<80 220>
VStem: 80 140<0 540>
LayerCount: 2
Fore
SplineSet
220 0 m 1
 80 0 l 1
 80 540 l 1
 220 540 l 1
 220 0 l 1
EndSplineSet
Validated: 1
EndChar

StartChar: sterling
Encoding: 163 163 115
Width: 600
VWidth: 937
Flags: W
HStem: 0 110<190 560> 300 110<20 80 220 390> 650 110<253.713 383.048>
VStem: 80 140<130.688 300 410 610.295> 420 140<520 613.115>
LayerCount: 2
Fore
SplineSet
320 650 m 0
 248 650 220 610 220 510 c 2
 220 410 l 1
 390 410 l 1
 390 300 l 1
 220 300 l 1
 220 220 l 2
 220 163 210 127 190 110 c 1
 560 110 l 1
 560 0 l 1
 40 0 l 1
 40 110 l 1
 67 132 80 169 80 220 c 2
 80 300 l 1
 20 300 l 1
 20 410 l 1
 80 410 l 1
 80 510 l 2
 80 669 169 760 321 760 c 0
 473 760 560 679 560 520 c 1
 420 520 l 1
 420 610 387 650 320 650 c 0
EndSplineSet
EndChar

StartChar: acute
Encoding: 180 180 117
Width: 260
VWidth: 0
Flags: W
HStem: 590 170<80 130>
VStem: 20 220
LayerCount: 2
Fore
SplineSet
240 760 m 1
 130 590 l 1
 20 590 l 1
 80 760 l 1
 240 760 l 1
EndSplineSet
Validated: 1
EndChar

StartChar: five
Encoding: 53 53 138
Width: 620
VWidth: 0
Flags: W
HStem: -20 112<229.865 376.003> 388 112<247.592 369.892> 630 110<245 530>
VStem: 428 144<146.471 329.843>
DStem2: 50 300 215 440 0.157115 0.98758<164.185 356.539>
LayerCount: 2
Fore
SplineSet
428 239 m 0
 428 327 383 388 300 388 c 0
 248 388 211 359 190 300 c 1
 50 300 l 1
 120 740 l 1
 530 740 l 1
 530 630 l 1
 245 630 l 1
 215 440 l 1
 229 471 265 500 320 500 c 0
 472 500 572 397 572 241 c 0
 572 84 454 -20 300 -20 c 0
 174 -20 70 71 50 180 c 1
 194 180 l 1
 204 121 239 92 300 92 c 0
 387 92 428 148 428 239 c 0
EndSplineSet
Validated: 1
EndChar

StartChar: questiondown
Encoding: 191 191 140
Width: 560
Flags: W
HStem: -220 110<215.655 344.345> 410 130<210 350>
VStem: 40 140<-73.2884 93.3154> 210 140<257.344 350 410 540> 380 140<-73.134 20>
CounterMasks: 1 38
LayerCount: 2
Fore
SplineSet
280 -220 m 0
 136 -220 40 -125 40 20 c 0
 40 81 67 135 120 180 c 0
 180 230 210 280 210 330 c 2
 210 350 l 1
 350 350 l 1
 350 320 l 2
 350 257 301 194 260 160 c 0
 207 115 180 68 180 20 c 0
 180 -67 213 -110 280 -110 c 0
 347 -110 380 -67 380 20 c 1
 520 20 l 1
 520 -125 424 -220 280 -220 c 0
350 540 m 1
 350 410 l 1
 210 410 l 1
 210 540 l 1
 350 540 l 1
EndSplineSet
Validated: 1
EndChar

StartChar: thorn
Encoding: 254 254 141
Width: 670
VWidth: 0
Flags: W
HStem: -20 110<285.599 434.397> 450 110<285.599 431.652> 720 20G<80 220>
VStem: 80 140<-200 60 164.674 375.326 480 740> 500 130<164.727 373.93>
LayerCount: 2
Fore
SplineSet
360 90 m 0
 454 90 500 168 500 270 c 0
 500 372 454 450 360 450 c 0
 266 450 220 372 220 270 c 0
 220 168 266 90 360 90 c 0
380 -20 m 0
 306 -20 248 12 220 60 c 1
 220 -200 l 1
 80 -200 l 1
 80 740 l 1
 220 740 l 1
 220 480 l 1
 248 528 306 560 380 560 c 0
 537 560 630 443 630 279 c 0
 630 119 533 -20 380 -20 c 0
EndSplineSet
Validated: 1
EndChar

StartChar: dotlessj
Encoding: 567 567 144
Width: 300
VWidth: 0
Flags: W
HStem: -240 110<-18.8494 137> 520 20G<80 220>
VStem: 80 140<-119.36 540>
LayerCount: 2
Fore
SplineSet
36 -130 m 0
 77 -130 80 -82 80 -30 c 2
 80 540 l 1
 220 540 l 1
 220 -50 l 2
 220 -165 188 -240 86 -240 c 0
 43 -240 7 -235 -20 -225 c 1
 -20 -125 l 1
 2 -128 21 -130 36 -130 c 0
EndSplineSet
Validated: 1
EndChar

StartChar: asciitilde
Encoding: 126 126 160
Width: 670
VWidth: 0
Flags: W
HStem: 200 100<415.803 495.584> 360 100<174.416 254.197>
VStem: 20 140<220 331.095> 510 140<328.905 440>
DStem2: 300 425 370 235 0.732793 -0.680451<-22.5192 203.1>
LayerCount: 2
Fore
SplineSet
20 220 m 1
 20 380 83 460 210 460 c 0
 245 460 275 448 300 425 c 2
 370 360 l 2
 413 320 443 300 462 300 c 0
 481 300 493 309 500 328 c 0
 507 347 510 385 510 440 c 1
 650 440 l 1
 650 280 587 200 460 200 c 0
 425 200 395 212 370 235 c 2
 300 300 l 2
 257 340 227 360 208 360 c 0
 189 360 177 351 170 332 c 0
 163 313 160 275 160 220 c 1
 20 220 l 1
EndSplineSet
Validated: 1
EndChar

StartChar: logicalnot
Encoding: 172 172 161
Width: 490
VWidth: 45
Flags: W
HStem: 275 110<20 330>
VStem: 330 140<140 275>
LayerCount: 2
Fore
SplineSet
20 275 m 1
 20 385 l 1
 470 385 l 1
 470 140 l 1
 330 140 l 1
 330 275 l 1
 20 275 l 1
EndSplineSet
Validated: 1
EndChar

StartChar: ampersand
Encoding: 38 38 164
Width: 740
VWidth: 0
Flags: W
HStem: -20 110<217.69 412.184> 0 21G<552.043 720> 650 110<279.541 391.015>
VStem: 40 140<125.126 254.153> 117 140<490.171 627.597> 415 140<499.985 628.711> 590 110<248.651 370>
DStem2: 398 373 275 322 0.653461 -0.75696<0 211.387>
LayerCount: 2
Fore
SplineSet
440 130 m 1xb6
 275 322 l 1
 214.378221735 287 180 240 180 180 c 0
 180 120 230 90 310 90 c 0
 365 90 409.358222275 104.288495613 440 130 c 1xb6
320 450 m 1
 386.229492188 474.10546875 415 515 415 565 c 0
 415 615 390 650 335 650 c 0
 283 650 257 615 257 565 c 0x2e
 257 525 276.325195312 475.012695312 320 450 c 1
310 -20 m 0xae
 130 -20 40 60 40 180 c 0xb6
 40 280 94.3292747875 342.986893041 190 398 c 1
 152 430 117 495 117 565 c 0
 117 685 220 760 340 760 c 0
 460 760 555 675 555 565 c 0
 555 485 524.150782985 433.712271842 398 373 c 1
 541 208 l 1
 571.641601562 233.711914062 590 290 590 370 c 1
 700 370 l 1
 700 263 668.624023438 171.755859375 621 115 c 1
 720 0 l 1
 569 0 l 1x6e
 530 46 l 1
 474 -5 400 -20 310 -20 c 0xae
EndSplineSet
Validated: 1
EndChar

StartChar: longs
Encoding: 383 383 165
Width: 350
VWidth: 0
Flags: W
HStem: 0 21G<90 230> 430 110<20 90> 650 110<173 328.849>
VStem: 90 140<0 430 540 639.36>
LayerCount: 2
Fore
SplineSet
230 0 m 1
 90 0 l 1
 90 430 l 1
 20 430 l 1
 20 540 l 1
 90 540 l 1
 90 570 l 2
 90 685 122 760 224 760 c 0
 267 760 303 755 330 745 c 1
 330 645 l 1
 308 648 289 650 274 650 c 0
 233 650 230 602 230 550 c 2
 230 0 l 1
EndSplineSet
Validated: 1
EndChar

StartChar: divide
Encoding: 247 247 166
Width: 600
VWidth: 0
Flags: W
HStem: 100 110<230 370> 315 110<20 580> 510 110<230 370>
VStem: 230 140<100 210 510 620>
LayerCount: 2
Fore
SplineSet
580 425 m 1
 580 315 l 1
 20 315 l 1
 20 425 l 1
 580 425 l 1
370 210 m 1
 370 100 l 1
 230 100 l 1
 230 210 l 1
 370 210 l 1
230 510 m 1
 230 620 l 1
 370 620 l 1
 370 510 l 1
 230 510 l 1
EndSplineSet
Validated: 1
EndChar

StartChar: f_f
Encoding: 64256 64256 167
Width: 660
VWidth: 0
Flags: W
HStem: 0 21G<90 230 400 540> 430 110<20 90 230 400 540 630> 645 100<284.94 350 584.706 640> 650 110<179 348.844 483 638.849>
VStem: 90 140<0 430 540 639.36> 400 140<0 430 540 639.36>
LayerCount: 2
Fore
SplineSet
284 650 m 0xdc
 234 650 230 602 230 550 c 2
 230 540 l 1
 400 540 l 1
 400 570 l 2
 400 685 432 760 534 760 c 0xdc
 577 760 613 755 640 745 c 1
 640 645 l 1xec
 618 648 599 650 584 650 c 0
 543 650 540 602 540 550 c 2
 540 540 l 1
 630 540 l 1
 630 430 l 1
 540 430 l 1
 540 0 l 1
 400 0 l 1
 400 430 l 1
 230 430 l 1
 230 0 l 1
 90 0 l 1
 90 430 l 1
 20 430 l 1
 20 540 l 1
 90 540 l 1
 90 570 l 2
 90 685 124 760 234 760 c 0xdc
 277 760 323 755 350 745 c 1
 350 645 l 1xec
 328 648 304 650 284 650 c 0xdc
EndSplineSet
Validated: 1
LCarets2: 1 0
Ligature2: "about f" f f
EndChar

StartChar: f_i
Encoding: 64257 64257 168
Width: 600
VWidth: 0
Flags: W
HStem: 0 21G<90 230 380 520> 430 110<20 90 230 321> 650 110<249 370.618>
VStem: 90 140<0 430 540 629.186> 380 140<0 540 610 636.79>
LayerCount: 2
Fore
SplineSet
380 540 m 1
 520 540 l 1
 520 0 l 1
 380 0 l 1
 380 540 l 1
321 540 m 1
 321 430 l 1
 230 430 l 1
 230 0 l 1
 90 0 l 1
 90 430 l 1
 20 430 l 1
 20 540 l 1
 90 540 l 1
 90 570 l 2
 90 710 195 760 305 760 c 0
 415 760 520 710 520 610 c 1
 380 610 l 1
 380 630 345 650 305 650 c 0
 265 650 230 630 230 570 c 2
 230 540 l 1
 321 540 l 1
EndSplineSet
Validated: 1
LCarets2: 1 0
Ligature2: "about f" f i
EndChar

StartChar: f_l
Encoding: 64258 64258 169
Width: 600
VWidth: 0
Flags: W
HStem: 0 21G<90 230 380 520> 430 110<20 90 230 321> 650 110<249 370.618>
VStem: 90 140<0 430 540 629.186> 380 140<0 636.79>
LayerCount: 2
Fore
SplineSet
321 540 m 1
 321 430 l 1
 230 430 l 1
 230 0 l 1
 90 0 l 1
 90 430 l 1
 20 430 l 1
 20 540 l 1
 90 540 l 1
 90 570 l 2
 90 710 195 760 305 760 c 0
 415 760 520 710 520 610 c 2
 520 0 l 1
 380 0 l 1
 380 610 l 2
 380 630 345 650 305 650 c 0
 265 650 230 630 230 570 c 2
 230 540 l 1
 321 540 l 1
EndSplineSet
Validated: 1
LCarets2: 1 0
Ligature2: "about f" f l
EndChar

StartChar: f_f_i
Encoding: 64259 64259 170
Width: 910
VWidth: 0
Flags: W
HStem: 0 21G<90 230 399 539 689 830> 430 110<20 90 230 399 539 630> 650 110<179 348.844 558 679.671>
VStem: 90 140<0 430 540 639.36> 399 140<0 430 540 629.186> 689 141<0 540 610 636.79>
LayerCount: 2
Fore
SplineSet
230 430 m 1
 230 0 l 1
 90 0 l 1
 90 430 l 1
 20 430 l 1
 20 540 l 1
 90 540 l 1
 90 570 l 2
 90 685 124 760 234 760 c 0
 277 760 323 755 350 745 c 1
 350 645 l 1
 328 648 304 650 284 650 c 0
 234 650 230 602 230 550 c 2
 230 540 l 1
 399 540 l 1
 399 570 l 2
 399 710 504 760 614 760 c 0
 724 760 830 710 830 610 c 1
 689 610 l 1
 689 630 654 650 614 650 c 0
 574 650 539 630 539 570 c 2
 539 540 l 1
 630 540 l 1
 630 430 l 1
 539 430 l 1
 539 0 l 1
 399 0 l 1
 399 430 l 1
 230 430 l 1
689 540 m 1
 830 540 l 1
 830 0 l 1
 689 0 l 1
 689 540 l 1
EndSplineSet
Validated: 1
Ligature2: "about f" f f i
EndChar

StartChar: f_f_l
Encoding: 64260 64260 171
Width: 910
VWidth: 0
Flags: W
HStem: 0 21G<90 230 399 539 690 831> 430 110<20 90 230 399 539 630> 650 110<179 348.844 558.676 680.671>
VStem: 90 140<0 430 540 639.36> 399 140<0 430 540 629.186> 690 141<0 636.79>
LayerCount: 2
Fore
SplineSet
230 430 m 1
 230 0 l 1
 90 0 l 1
 90 430 l 1
 20 430 l 1
 20 540 l 1
 90 540 l 1
 90 570 l 2
 90 685 124 760 234 760 c 0
 277 760 323 755 350 745 c 1
 350 645 l 1
 328 648 304 650 284 650 c 0
 234 650 230 602 230 550 c 2
 230 540 l 1
 399 540 l 1
 399 570 l 2
 399 710 505 760 615 760 c 0
 725 760 831 710 831 610 c 2
 831 0 l 1
 690 0 l 1
 690 610 l 2
 690 630 655 650 615 650 c 0
 575 650 539 630 539 570 c 2
 539 540 l 1
 630 540 l 1
 630 430 l 1
 539 430 l 1
 539 0 l 1
 399 0 l 1
 399 430 l 1
 230 430 l 1
EndSplineSet
Validated: 1
LCarets2: 2 0 0
Ligature2: "about f" f f l
EndChar

StartChar: longs_t
Encoding: 64261 64261 172
Width: 640
VWidth: 0
Flags: W
HStem: -20 110<463 618.849> 0 21G<90 230> 430 110<20 90 310 380 520 610> 650 110<249 370.618>
VStem: 90 140<0 430 540 629.186> 380 140<100.64 430 540 636.79>
LayerCount: 2
Fore
SplineSet
230 0 m 1x7c
 90 0 l 1x7c
 90 430 l 1
 20 430 l 1
 20 540 l 1
 90 540 l 1
 90 570 l 2
 90 710 195 760 305 760 c 0
 415 760 520 710 520 610 c 2
 520 540 l 1
 610 540 l 1
 610 430 l 1
 520 430 l 1
 520 190 l 2
 520 138 523 90 564 90 c 0
 579 90 598 92 620 95 c 1
 620 -5 l 1
 593 -15 557 -20 514 -20 c 0xbc
 412 -20 380 55 380 170 c 2
 380 430 l 1
 310 430 l 1
 310 540 l 1
 380 540 l 1
 380 610 l 2
 380 630 345 650 305 650 c 0
 265 650 230 630 230 570 c 2
 230 0 l 1x7c
EndSplineSet
Validated: 1
EndChar

StartChar: macron
Encoding: 175 175 175
Width: 360
VWidth: 0
Flags: W
HStem: 660 110<20 340>
VStem: 20 320<660 770>
LayerCount: 2
Fore
SplineSet
20 660 m 1
 20 770 l 1
 340 770 l 1
 340 660 l 1
 20 660 l 1
EndSplineSet
Validated: 1
EndChar

StartChar: ae
Encoding: 230 230 185
Width: 970
VWidth: 0
Flags: W
HStem: -20 110<197.933 347.641 587.657 737.189> 230 110<212.142 388.641 530 790> 450 110<226.295 365.677 581.629 735.334>
VStem: 40 140<109.422 200.092> 390 140<156.215 224.979> 780 140<30 170>
LayerCount: 2
Fore
SplineSet
790 340 m 1
 771 408 740 450 660 450 c 0
 580 450 549 408 530 340 c 1
 790 340 l 1
265 90 m 0
 342 90 390 127 390 200 c 2
 390 220 l 1
 365 227 340 230 315 230 c 4
 246 230 180 213 180 153 c 0
 180 108 223 90 265 90 c 0
245 -20 m 0
 128 -20 40 32 40 152 c 0
 40 272 165 340 295 340 c 0
 325 340 357 337 390 330 c 1
 390 360 l 2
 390 420 360 450 295 450 c 0
 230 450 200 418 200 370 c 1
 60 370 l 1
 60 489 156 560 296 560 c 0
 386 560 434 536 475 492 c 1
 521 535 585 560 662 560 c 0
 843 560 930 423 930 230 c 1
 530 230 l 1
 540 150 578 90 660 90 c 0
 719 90 772 124 780 170 c 1
 920 170 l 1
 898 53 800 -20 655 -20 c 0
 565 -20 494 16 448 77 c 1
 413 17 353 -20 245 -20 c 0
EndSplineSet
Validated: 1
EndChar

StartChar: s_t
Encoding: 64262 64262 186
Width: 900
VWidth: 0
Flags: W
HStem: -20 110<203.996 346.004 723 878.849> 430 110<570 640 780 870> 450 110<219.136 332.072> 650 110<509 630.618>
VStem: 60 140<346.442 431.093> 350 140<380 432.609 551 629.186> 370 140<114.688 192.517> 640 140<100.64 430 540 636.79>
LayerCount: 2
Fore
SplineSet
510 160 m 0xbb
 510 37 406 -20 275 -20 c 0
 144 -20 40 37 40 160 c 1
 180 160 l 1
 180 115 223 90 275 90 c 0
 327 90 370 114 370 160 c 0
 370 188 338 208 275 220 c 0
 132 247 60 300 60 380 c 0
 60 495 154 560 275 560 c 0xbb
 302 560 327 557 350 551 c 1
 350 570 l 2
 350 710 455 760 565 760 c 0
 675 760 780 710 780 610 c 2
 780 540 l 1
 870 540 l 1
 870 430 l 1
 780 430 l 1
 780 190 l 2
 780 138 783 90 824 90 c 0
 839 90 858 92 880 95 c 1
 880 -5 l 1
 853 -15 817 -20 774 -20 c 0
 672 -20 640 55 640 170 c 2
 640 430 l 1
 570 430 l 1
 570 540 l 1
 640 540 l 1
 640 610 l 2
 640 630 605 650 565 650 c 0
 525 650 490 630 490 570 c 2
 490 380 l 1
 350 380 l 1xdd
 350 424 320 450 275 450 c 0
 232 450 200 424 200 384 c 0
 200 346 229 338 275 330 c 0
 398 308 510 278 510 160 c 0xbb
EndSplineSet
Validated: 1
Ligature2: "+x4THWMCsxqkA +1WnHTMeQ" s t
EndChar

StartChar: AE
Encoding: 198 198 187
Width: 820
VWidth: 1914
Flags: W
HStem: 0 112<519 800> 199 112<253 375> 314 112<519 770> 628 112<355 375 519 800>
VStem: 20 134<0 134> 375 144<112 199 311 314 426 628>
DStem2: 20 0 154 0 0.303841 0.952723<40.7147 249.449 367.092 700.097>
LayerCount: 2
Fore
SplineSet
375 311 m 1
 375 628 l 1
 355 628 l 1
 253 311 l 1
 375 311 l 1
154 0 m 1
 20 0 l 1
 256 740 l 1
 800 740 l 1
 800 628 l 1
 519 628 l 1
 519 426 l 1
 770 426 l 1
 770 314 l 1
 519 314 l 1
 519 112 l 1
 800 112 l 1
 800 0 l 1
 375 0 l 1
 375 199 l 1
 217 199 l 1
 154 0 l 1
EndSplineSet
Validated: 1
EndChar

StartChar: one.superior
Encoding: 185 185 188
Width: 425
VWidth: 0
VStem: 204 108<307 685>
LayerCount: 2
Fore
SplineSet
73 624 m 5
 73 715 l 5
 255 800 l 5
 312 800 l 5
 312 307 l 5
 204 307 l 5
 204 685 l 5
 73 624 l 5
EndSplineSet
Validated: 1
EndChar

StartChar: two.superior
Encoding: 178 178 189
Width: 437
VWidth: 0
HStem: 303 84<212 411> 726 84<159.529 266.408>
VStem: 27 108<632 701.675> 290 108<565.884 701.601>
DStem2: 224 520 212 387 0.79473 0.606964<-90.2629 87.7117>
LayerCount: 2
Fore
SplineSet
212 726 m 0
 157 726 135 686 135 632 c 1
 27 632 l 1
 27 741 98 810 211 810 c 0
 322 810 398 738 398 632 c 0
 398 527 319 471 254 419 c 2
 212 387 l 1
 411 387 l 1
 411 303 l 5
 42 303 l 1
 42 381 l 1
 224 520 l 2
 267 553 290 591 290 633 c 0
 290 687 267 726 212 726 c 0
EndSplineSet
Validated: 1
EndChar

StartChar: three.superior
Encoding: 179 179 190
Width: 445
VWidth: 0
HStem: 284 85<161.033 284.967> 527 85<174 272.6> 729 85<165.825 277.112>
VStem: 27 108<394.092 449> 49 106<672 714.614> 289 108<629.51 716.946> 311 108<395.409 497.971>
LayerCount: 2
Fore
SplineSet
419 447 m 0xe2
 419 341 341 284 223 284 c 0
 105 284 27 342 27 449 c 1
 135 449 l 1
 135 402 171 369 223 369 c 0
 275 369 311 402 311 449 c 0xf2
 311 501 266 527 174 527 c 1
 174 612 l 1
 241 612 289 622 289 671 c 0
 289 709 264 729 222 729 c 0
 180 729 155 709 155 672 c 1
 49 672 l 1
 49 761 123 814 223 814 c 0
 323 814 397 763 397 675 c 0xec
 397 625 376 589 333 569 c 1
 391 545 419 504 419 447 c 0xe2
EndSplineSet
Validated: 1
EndChar

StartChar: circumflex
Encoding: 710 710 191
Width: 380
VWidth: 0
Flags: W
HStem: 678 82<130 250>
VStem: 20 110<580 690> 250 110<580 690>
LayerCount: 2
Fore
SplineSet
190 678 m 1
 130 580 l 1
 20 580 l 1
 130 760 l 1
 250 760 l 1
 360 580 l 1
 250 580 l 1
 190 678 l 1
EndSplineSet
Validated: 1
EndChar

StartChar: caron
Encoding: 711 711 219
Width: 380
VWidth: 0
Flags: W
HStem: 580 82<130 250> 740 20G<20 142.245 237.755 360>
VStem: 20 110<650 760> 250 110<650 760>
LayerCount: 2
Fore
SplineSet
190 662 m 1
 250 760 l 1
 360 760 l 1
 250 580 l 1
 130 580 l 1
 20 760 l 1
 130 760 l 1
 190 662 l 1
EndSplineSet
Validated: 1
EndChar

StartChar: germandbls
Encoding: 223 223 230
Width: 650
VWidth: 0
Flags: W
HStem: -20 110<291.315 435.219> 0 21G<80 220> 335 110<330 406.782> 650 110<258.196 402.634>
VStem: 80 140<0 611.799> 444 140<481.785 611.618> 470 140<123.905 281.22>
LayerCount: 2
Fore
SplineSet
380 90 m 0xba
 450 90 470 150 470 210 c 0xba
 470 270 430 335 330 335 c 1
 330 445 l 1
 410 445 444 490 444 550 c 0
 444 600 410 650 330 650 c 0
 250 650 220 600 220 550 c 2
 220 0 l 1
 80 0 l 1
 80 550 l 2
 80 640 150 760 330 760 c 0
 510 760 584 640 584 550 c 0x7c
 584 475 546 425 484 392 c 1
 561 356 610 300 610 210 c 0
 610 80 530 -20 380 -20 c 0xba
 350 -20 318 -10 290 0 c 1x7a
 290 110 l 1
 318 100 350 90 380 90 c 0xba
EndSplineSet
Validated: 1
EndChar

StartChar: breve
Encoding: 728 728 239
Width: 0
VWidth: 0
Flags: W
HStem: 570 80<-213.203 -146.797> 720 20G<-340 -230 -130 -20>
VStem: -340 110<667.031 740> -130 110<667.031 740>
LayerCount: 2
Fore
SplineSet
-340 740 m 1
 -230 740 l 1
 -230 690 -210 650 -180 650 c 0
 -150 650 -130 690 -130 740 c 1
 -20 740 l 1
 -20 630 -90 570 -180 570 c 0
 -270 570 -340 630 -340 740 c 1
EndSplineSet
Validated: 1
EndChar

StartChar: ring
Encoding: 730 730 246
Width: 0
VWidth: 0
Flags: W
HStem: 400 80<-213.203 -146.797> 660 80<-213.203 -146.797>
VStem: -340 110<495.568 644.432> -130 110<495.568 644.432>
LayerCount: 2
Fore
SplineSet
-20 570 m 0
 -20 460 -90 400 -180 400 c 0
 -270 400 -340 460 -340 570 c 0
 -340 680 -270 740 -180 740 c 0
 -90 740 -20 680 -20 570 c 0
-230 570 m 0
 -230 520 -210 480 -180 480 c 0
 -150 480 -130 520 -130 570 c 0
 -130 620 -150 660 -180 660 c 0
 -210 660 -230 620 -230 570 c 0
EndSplineSet
Validated: 1
EndChar

StartChar: ogonek
Encoding: 731 731 259
Width: 310
Flags: W
HStem: -220 74<157.367 269.153> -20 20G<107 240>
VStem: 40 110<-135.802 -50.0702>
LayerCount: 2
Fore
SplineSet
40 -110 m 0
 40 -60 74 -24 140 0 c 1
 240 0 l 1
 162 -45 150 -70 150 -100 c 0
 150 -135 180 -146 220 -146 c 0
 240 -146 255 -139 270 -126 c 1
 270 -200 l 1
 249 -212 220 -220 180 -220 c 0
 100 -220 40 -180 40 -110 c 0
EndSplineSet
Validated: 1
EndChar

StartChar: Aogonek
Encoding: 260 260 260
Width: 700
VWidth: 0
HStem: -213 74<580.367 692.153> 0 21G<20 160.332> 199 112<253 447> 616 124<256 444>
VStem: 20 134<0 134> 463 110<-128.802 -42.8275>
DStem2: 20 0 154 0 0.303841 0.952723<40.7147 249.449 367.092 687.145> 444 740 350 616 0.303841 -0.952723<89.5765 409.63 527.273 738.236>
LayerCount: 2
Fore
SplineSet
154 0 m 1
 20 0 l 1
 256 740 l 1
 444 740 l 1
 680 0 l 1
 651 -0 l 1
 584 -40 573 -65 573 -93 c 0
 573 -128 603 -139 643 -139 c 0
 663 -139 678 -132 693 -119 c 1
 693 -193 l 1
 672 -205 643 -213 603 -213 c 0
 523 -213 463 -173 463 -103 c 0
 463 -58 491 -23 546 1 c 1
 483 199 l 1
 217 199 l 1
 154 0 l 1
253 311 m 1
 447 311 l 1
 350 616 l 1
 253 311 l 1
EndSplineSet
Validated: 1
EndChar

StartChar: aogonek
Encoding: 261 261 261
Width: 590
VWidth: 0
Flags: W
HStem: -215 74<427.367 539.153> -20 110<197.933 330.05> 230 110<212.142 388.641> 450 110<226.295 363.398>
VStem: 40 140<109.422 200.092> 310 110<-130.802 -45.1541> 390 140<130.992 224.979 330 421.851>
LayerCount: 2
Fore
SplineSet
245 -20 m 0xfa
 128 -20 40 32 40 152 c 0
 40 272 165 340 295 340 c 0
 325 340 357 337 390 330 c 1
 390 360 l 2
 390 420 360 450 295 450 c 0
 230 450 200 418 200 370 c 1
 60 370 l 1
 60 489 156 560 296 560 c 0
 446 560 530 477 530 340 c 2
 530 0 l 1xfa
 501 -0 l 1
 431 -42 420 -66 420 -95 c 0
 420 -130 450 -141 490 -141 c 0
 510 -141 525 -134 540 -121 c 1
 540 -195 l 1
 519 -207 490 -215 450 -215 c 0
 370 -215 310 -175 310 -105 c 0xfc
 310 -58 341 -23 400 1 c 1
 390 60 l 1
 365 16 314 -20 245 -20 c 0xfa
265 90 m 0
 342 90 390 127 390 200 c 2
 390 220 l 1
 365 227 340 230 315 230 c 0
 246 230 180 213 180 153 c 0
 180 108 223 90 265 90 c 0
EndSplineSet
Validated: 1
EndChar

StartChar: Eogonek
Encoding: 280 280 262
Width: 660
VWidth: 0
HStem: -213 74<527.367 639.153> 0 112<224 492 565.922 640> 314 112<224 610> 628 112<224 640>
VStem: 80 144<112 314 426 628> 410 110<-128.802 -43.2924>
LayerCount: 2
Fore
SplineSet
80 0 m 1
 80 740 l 1
 640 740 l 1
 640 628 l 1
 224 628 l 1
 224 426 l 1
 610 426 l 1
 610 314 l 1
 224 314 l 1
 224 112 l 1
 640 112 l 1
 640 0 l 1
 598 -0 l 1
 531 -41 520 -65 520 -93 c 0
 520 -128 550 -139 590 -139 c 0
 610 -139 625 -132 640 -119 c 1
 640 -193 l 1
 619 -205 590 -213 550 -213 c 0
 470 -213 410 -173 410 -103 c 0
 410 -58 438 -24 492 0 c 1
 80 0 l 1
EndSplineSet
Validated: 1
EndChar

StartChar: eogonek
Encoding: 281 281 263
Width: 620
VWidth: 0
HStem: -233 74<273.367 385.153> 230 110<180 440> 450 110<231.692 385.334>
VStem: 156 110<-148.802 -63.3413>
LayerCount: 2
Fore
SplineSet
440 340 m 1
 421 408 390 450 310 450 c 0
 230 450 199 408 180 340 c 1
 440 340 l 1
180 230 m 1
 190 150 230 90 312 90 c 0
 371 90 422 124 430 170 c 1
 570 170 l 1
 550 64 469 -5 347 -18 c 1
 277 -60 266 -84 266 -113 c 0
 266 -148 296 -159 336 -159 c 0
 356 -159 371 -152 386 -139 c 1
 386 -213 l 1
 365 -225 336 -233 296 -233 c 0
 216 -233 156 -193 156 -123 c 0
 156 -75 188 -39 250 -15 c 1
 119 10 40 121 40 270 c 0
 40 442 144 560 312 560 c 0
 493 560 580 423 580 230 c 1
 180 230 l 1
EndSplineSet
Validated: 1
EndChar

StartChar: Thorn
Encoding: 222 222 264
Width: 670
VWidth: 0
Flags: W
HStem: 0 21G<80 224> 145 112<224 445.955> 483 112<224 445.457> 720 20G<81.9459 224>
VStem: 80 144<0 145 257 483 595 740> 486 144<297.244 442.756>
LayerCount: 2
Fore
SplineSet
486 370 m 0
 486 446 441 483 366 483 c 2
 224 483 l 1
 224 257 l 1
 366 257 l 2
 441 257 486 294 486 370 c 0
80 0 m 1
 82 740 l 1
 224 740 l 1
 224 595 l 1
 430 595 l 2
 541 595 630 494 630 370 c 0
 630 246 545 145 430 145 c 2
 224 145 l 1
 224 0 l 1
 80 0 l 1
EndSplineSet
Validated: 1
EndChar

StartChar: tilde
Encoding: 732 732 265
Width: 430
VWidth: 0
Flags: W
HStem: 575 70<250.204 294.268> 660 70<135.732 181.06>
VStem: 40 90<575 657.325> 300 90<647.675 730>
LayerCount: 2
Fore
SplineSet
40 575 m 1
 40 665 90 730 150 730 c 0
 190 730 218.659179688 720.40234375 236 690 c 0
 253.340820312 659.59765625 260 645 275 645 c 0
 290 645 300 660 300 730 c 1
 390 730 l 1
 390 640 340 575 280 575 c 0
 240 575 212.340820312 584.59765625 195 615 c 0
 177.659179688 645.40234375 170 660 155 660 c 0
 140 660 130 645 130 575 c 1
 40 575 l 1
EndSplineSet
Validated: 1
EndChar

StartChar: hungarumlaut
Encoding: 733 733 276
Width: 420
VWidth: 0
Flags: W
HStem: 590 170
LayerCount: 2
Fore
SplineSet
20 590 m 5
 100 760 l 5
 230 760 l 5
 100 590 l 5
 20 590 l 5
190 590 m 5
 270 760 l 5
 400 760 l 5
 270 590 l 5
 190 590 l 5
EndSplineSet
Validated: 1
EndChar

StartChar: Uogonek
Encoding: 370 370 281
Width: 660
VWidth: 0
HStem: -233 74<297.367 409.153> 720 20G<50 194 466 610>
VStem: 50 144<149.2 740> 180 110<-148.802 -63.2507> 466 144<151.47 740>
LayerCount: 2
Fore
SplineSet
50 250 m 2xe8
 50 740 l 1
 194 740 l 1
 194 290 l 2xe8
 194 165 211 92 330 92 c 0
 449 92 466 165 466 290 c 2
 466 740 l 1
 610 740 l 1
 610 250 l 2
 610 83 530 -7 370 -19 c 1
 301 -60 290 -84 290 -113 c 0
 290 -148 320 -159 360 -159 c 0
 380 -159 395 -152 410 -139 c 1
 410 -213 l 1
 389 -225 360 -233 320 -233 c 0
 240 -233 180 -193 180 -123 c 0xd8
 180 -76 211 -41 270 -17 c 1
 123 1 50 90 50 250 c 2xe8
EndSplineSet
Validated: 1
EndChar

StartChar: uogonek
Encoding: 371 371 282
Width: 650
VWidth: 0
HStem: -215 74<467.367 579.153> -20 110<249.047 373.766> 520 20G<70 210 430 570>
VStem: 70 140<127.969 540> 350 110<-130.802 -43.8462> 430 140<0 60 127.969 540>
LayerCount: 2
Fore
SplineSet
430 60 m 1xf4
 413 15 352 -20 290 -20 c 0
 169 -20 70 38 70 160 c 2
 70 540 l 1
 210 540 l 1
 210 210 l 2
 210 130 247 90 320 90 c 0
 393 90 430 130 430 210 c 2
 430 540 l 1
 570 540 l 1
 570 0 l 1xf4
 541 0 l 1
 471 -42 460 -66 460 -95 c 0
 460 -130 490 -141 530 -141 c 0
 550 -141 565 -134 580 -121 c 1
 580 -195 l 1
 559 -207 530 -215 490 -215 c 0
 410 -215 350 -175 350 -105 c 0xf8
 350 -58 379 -24 437 0 c 1
 430 0 l 1
 430 60 l 1xf4
EndSplineSet
Validated: 1
EndChar

StartChar: Iogonek
Encoding: 302 302 283
Width: 300
VWidth: 0
HStem: -212.667 74<117.367 229.153> 720 20G<78 222>
VStem: 0 110<-128.469 -42.124> 78 144<0 740>
LayerCount: 2
Fore
SplineSet
81.6799016293 -4.64905891562e-016 m 1xe0
 78 0 l 1
 78 740 l 1
 222 740 l 1
 222 0 l 1xd0
 187.578867772 -1.39862080251e-016 l 1
 120.701251973 -40.4656707566 110 -64.3369039777 110 -92.6669921875 c 0
 110 -127.666992188 140 -138.666992188 180 -138.666992188 c 0
 200 -138.666992188 215 -131.666992188 230 -118.666992188 c 1
 230 -192.666992188 l 1
 209 -204.666992188 180 -212.666992188 140 -212.666992188 c 0
 60 -212.666992188 0 -172.666992188 0 -102.666992188 c 0
 0 -57.5223426423 27.7173356027 -23.7907136395 81.6799016293 -4.64905891562e-016 c 1xe0
EndSplineSet
Validated: 1
EndChar

StartChar: iogonek
Encoding: 303 303 284
Width: 300
VWidth: 0
HStem: -212.667 74<117.367 229.153> 520 20G<80 220> 610 130<80 220>
VStem: 0 110<-128.469 -42.124> 80 140<0 540 610 740>
LayerCount: 2
Fore
SplineSet
80 610 m 1xe8
 80 740 l 1
 220 740 l 1
 220 610 l 1
 80 610 l 1xe8
81.6799016293 -4.64905891562e-016 m 1
 80 0 l 1
 80 540 l 1
 220 540 l 1
 220 0 l 1xe8
 187.578867772 -1.39862080251e-016 l 1
 120.701251973 -40.4656707566 110 -64.3369039777 110 -92.6669921875 c 0
 110 -127.666992188 140 -138.666992188 180 -138.666992188 c 0
 200 -138.666992188 215 -131.666992188 230 -118.666992188 c 1
 230 -192.666992188 l 1
 209 -204.666992188 180 -212.666992188 140 -212.666992188 c 0
 60 -212.666992188 0 -172.666992188 0 -102.666992188 c 0xf0
 0 -57.5223426423 27.7173356027 -23.7907136395 81.6799016293 -4.64905891562e-016 c 1
EndSplineSet
Validated: 1
EndChar

StartChar: eth
Encoding: 240 240 285
Width: 580
VWidth: 0
Flags: W
HStem: -20 113<222.808 357.192> 450 110<225.617 348.587> 720 20G<130 286.5>
VStem: 20 140<167.833 377.684> 420 140<167.833 375.73>
DStem2: 165 660 190 580 0.966838 0.255391<3.73966 57.9738 223.978 274.089>
LayerCount: 2
Fore
SplineSet
560 271 m 0
 560 91 440 -20 290 -20 c 0
 140 -20 20 91 20 271 c 0
 20 451 140 560 270 560 c 0
 300 560 324 555 350 540 c 1
 340 558 319 582 294 608 c 1
 190 580 l 1
 165 660 l 1
 221 675 l 1
 190 701 158 724 130 740 c 1
 280 740 l 1
 293 733 311 721 331 704 c 1
 430 730 l 1
 455 650 l 1
 403 636 l 1
 481 552 560 425 560 271 c 0
160 271 m 0
 160 151 220 93 290 93 c 0
 360 93 420 151 420 271 c 0
 420 391 360 450 290 450 c 0
 220 450 160 391 160 271 c 0
EndSplineSet
Validated: 1
EndChar

StartChar: multiply
Encoding: 215 215 286
Width: 540
VWidth: 0
Flags: W
HStem: 195.676 168.649<185.676 354.324>
VStem: 20 130<40 170 390 520> 205 130<215 345> 390 130<40 170 390 520>
DStem2: 150 520 20 520 0.610508 -0.79201<0 196.558 330.129 526.687> 20 40 150 40 0.610508 0.79201<79.366 275.924 409.495 606.053>
CounterMasks: 1 70
LayerCount: 2
Fore
SplineSet
390 520 m 1
 520 520 l 1
 335 280 l 1
 520 40 l 1
 390 40 l 1
 270 195.675675676 l 1
 150 40 l 1
 20 40 l 1
 205 280 l 1
 20 520 l 1
 150 520 l 1
 270 364.324324324 l 1
 390 520 l 1
EndSplineSet
Validated: 1
EndChar

StartChar: minus
Encoding: 8722 8722 287
Width: 600
VWidth: 0
Flags: W
HStem: 315 110<20 580>
LayerCount: 2
Fore
SplineSet
20 315 m 1
 20 425 l 1
 580 425 l 1
 580 315 l 1
 20 315 l 1
EndSplineSet
Validated: 1
EndChar

StartChar: bullet
Encoding: 8226 8226 289
Width: 460
VWidth: 0
Flags: W
HStem: 210 300<152.15 307.85>
VStem: 80 300<282.15 437.85>
LayerCount: 2
Fore
SplineSet
80 360 m 0
 80 443 147 510 230 510 c 0
 313 510 380 443 380 360 c 0
 380 277 313 210 230 210 c 0
 147 210 80 277 80 360 c 0
EndSplineSet
Validated: 1
EndChar

StartChar: dagger
Encoding: 8224 8224 290
Width: 500
VWidth: 0
Flags: W
HStem: 430 110<20 180 320 480> 720 20G<180 320>
VStem: 180 140<-140 430 540 740>
LayerCount: 2
Fore
SplineSet
180 740 m 1
 320 740 l 1
 320 540 l 1
 480 540 l 1
 480 430 l 1
 320 430 l 1
 320 -140 l 1
 180 -140 l 1
 180 430 l 1
 20 430 l 1
 20 540 l 1
 180 540 l 1
 180 740 l 1
EndSplineSet
Validated: 1
EndChar

StartChar: daggerdbl
Encoding: 8225 8225 291
Width: 500
VWidth: 0
Flags: W
HStem: 60 110<25 180 320 485> 430 110<20 180 320 480> 720 20G<180 320>
VStem: 180 140<-140 60 170 430 540 740>
LayerCount: 2
Fore
SplineSet
180 740 m 1
 320 740 l 1
 320 540 l 1
 480 540 l 1
 480 430 l 1
 320 430 l 1
 320 170 l 1
 485 170 l 1
 485 60 l 1
 320 60 l 1
 320 -140 l 1
 180 -140 l 1
 180 60 l 1
 25 60 l 1
 25 170 l 1
 180 170 l 1
 180 430 l 1
 20 430 l 1
 20 540 l 1
 180 540 l 1
 180 740 l 1
EndSplineSet
Validated: 1
EndChar

StartChar: quotesinglbase
Encoding: 8218 8218 292
Width: 300
Flags: W
HStem: 0 130<80 150>
VStem: 80 140<0 130> 80 69<-130 -61> 150 70<-62.7304 0>
LayerCount: 2
Fore
SplineSet
80 0 m 1xc0
 80 130 l 1
 220 130 l 1
 220 0 l 2xc0
 220 -35 196 -73 149 -130 c 1
 80 -130 l 1
 127 -74 150 -35 150 0 c 1xb0
 80 0 l 1xc0
EndSplineSet
Validated: 1
EndChar

StartChar: quoteright
Encoding: 8217 8217 294
Width: 300
VWidth: 1610
Flags: W
HStem: 610 130<80 150>
VStem: 80 140<610 740> 80 69<480 549> 150 70<547.27 610>
LayerCount: 2
Fore
SplineSet
80 610 m 1xc0
 80 740 l 1
 220 740 l 1
 220 610 l 2xc0
 220 575 196 537 149 480 c 1
 80 480 l 1
 127 536 150 575 150 610 c 1xb0
 80 610 l 1xc0
EndSplineSet
Validated: 1
EndChar

StartChar: quoteleft
Encoding: 8216 8216 295
Width: 300
VWidth: 1610
Flags: W
HStem: 480 130<150 220> 720 20G<127.5 220>
VStem: 80 140<480 610> 80 70<610 672.73> 151 69<671 740>
LayerCount: 2
Fore
SplineSet
220 610 m 1xe0
 220 480 l 1
 80 480 l 1
 80 610 l 2xe0
 80 645 104 683 151 740 c 1
 220 740 l 1
 173 684 150 645 150 610 c 1xd8
 220 610 l 1xe0
EndSplineSet
Validated: 1
EndChar

StartChar: endash
Encoding: 8211 8211 298
Width: 500
VWidth: 0
Flags: W
HStem: 275 110<40 460>
LayerCount: 2
Fore
SplineSet
40 275 m 1
 40 385 l 1
 460 385 l 1
 460 275 l 1
 40 275 l 1
EndSplineSet
Validated: 1
EndChar

StartChar: emdash
Encoding: 8212 8212 299
Width: 1000
VWidth: 0
Flags: W
HStem: 275 110<40 960>
LayerCount: 2
Fore
SplineSet
40 275 m 1
 40 385 l 1
 960 385 l 1
 960 275 l 1
 40 275 l 1
EndSplineSet
Validated: 1
EndChar

StartChar: notequal
Encoding: 8800 8800 300
Width: 580
VWidth: 0
Flags: W
HStem: 215 110<70 153.164 344.134 510> 405 110<70 240.949 431.918 510> 730 20G<390.769 540>
DStem2: 40 -30 180 -30 0.419058 0.907959<58.6681 270.044 450.341 479.524 659.821 859.069>
LayerCount: 2
Fore
SplineSet
400 750 m 1
 540 750 l 1
 431.918095905 515.822541127 l 1
 510 516 l 1
 510 406 l 1
 381.095554778 405.707035352 l 1
 344.133706685 325.623031152 l 1
 510 326 l 1
 510 216 l 1
 293.311165558 215.507525376 l 1
 180 -30 l 1
 40 -30 l 1
 153.164158208 215.18900945 l 1
 70 215 l 1
 70 325 l 1
 203.986699335 325.304515226 l 1
 240.948547427 405.388519426 l 1
 70 405 l 1
 70 515 l 1
 291.771088554 515.504025201 l 1
 400 750 l 1
EndSplineSet
Validated: 1
EndChar

StartChar: guilsinglleft
Encoding: 8249 8249 301
Width: 360
VWidth: 0
Flags: W
VStem: 40 120<225 395> 180 140<120 260 360 500>
DStem2: 40 335 160 310 0.644136 0.764911<58.1735 216.389> 160 310 40 285 0.644136 -0.764911<0 158.216>
LayerCount: 2
Fore
SplineSet
40 285 m 1
 40 335 l 1
 180 500 l 1
 320 500 l 1
 160 310 l 1
 320 120 l 1
 180 120 l 1
 40 285 l 1
EndSplineSet
Validated: 1
EndChar

StartChar: guilsinglright
Encoding: 8250 8250 302
Width: 360
VWidth: 0
Flags: W
VStem: 40 140<120 260 360 500> 200 120<225 395>
DStem2: 180 500 40 500 0.644136 -0.764911<0 158.216> 40 120 180 120 0.644136 0.764911<90.179 248.395>
LayerCount: 2
Fore
SplineSet
320 285 m 1
 180 120 l 1
 40 120 l 1
 200 310 l 1
 40 500 l 1
 180 500 l 1
 320 335 l 1
 320 285 l 1
EndSplineSet
Validated: 1
EndChar

StartChar: florin
Encoding: 402 402 303
Width: 380
VWidth: 0
Flags: W
HStem: -240 110<21.1506 177> 430 110<50 120 260 350> 650 110<203 358.849>
VStem: 120 140<-119.36 430 540 639.36>
LayerCount: 2
Fore
SplineSet
120 430 m 1
 50 430 l 1
 50 540 l 1
 120 540 l 1
 120 570 l 2
 120 685 152 760 254 760 c 0
 297 760 333 755 360 745 c 1
 360 645 l 1
 338 648 319 650 304 650 c 0
 263 650 260 602 260 550 c 2
 260 540 l 1
 350 540 l 1
 350 430 l 1
 260 430 l 1
 260 -50 l 2
 260 -165 228 -240 126 -240 c 0
 83 -240 47 -235 20 -225 c 1
 20 -125 l 1
 42 -128 61 -130 76 -130 c 0
 117 -130 120 -82 120 -30 c 2
 120 430 l 1
EndSplineSet
Validated: 1
EndChar

StartChar: Delta
Encoding: 8710 8710 307
Width: 700
VWidth: 1914
Flags: W
HStem: 0 112<189.636 510.364> 616 124<256 444>
DStem2: 20 0 189.636 112 0.303841 0.952723<158.247 687.145> 444 740 350 616 0.303841 -0.952723<89.5765 618.474>
LayerCount: 2
Fore
SplineSet
510.363636364 112 m 1
 350 616 l 1
 189.636363636 112 l 1
 510.363636364 112 l 1
680 0 m 1
 20 0 l 1
 256 740 l 1
 444 740 l 1
 680 0 l 1
EndSplineSet
Validated: 1
EndChar

StartChar: perthousand
Encoding: 8240 8240 308
Width: 1050
VWidth: 0
Flags: W
HStem: 5 90<498.875 571.125 828.875 901.125> 205 90<498.875 571.125 828.875 901.125> 405 90<148.875 221.125> 605 90<148.875 221.125>
VStem: 40 100<503.141 596.859> 230 100<503.141 596.859> 390 100<103.141 196.859> 580 100<103.141 196.859> 720 100<103.141 196.859> 910 100<103.141 196.859>
DStem2: 120 85 200 40 0.571064 0.820905<8.74442 700.446>
LayerCount: 2
Fore
SplineSet
185 405 m 0
 106 405 40 471 40 550 c 0
 40 629 106 695 185 695 c 0
 264 695 330 629 330 550 c 0
 330 471 264 405 185 405 c 0
185 605 m 0
 157 605 140 580 140 550 c 0
 140 520 157 495 185 495 c 0
 213 495 230 520 230 550 c 0
 230 580 213 605 185 605 c 0
120 85 m 1
 520 660 l 1
 600 615 l 1
 200 40 l 1
 120 85 l 1
535 5 m 0
 456 5 390 71 390 150 c 0
 390 229 456 295 535 295 c 0
 614 295 680 229 680 150 c 0
 680 71 614 5 535 5 c 0
535 205 m 0
 507 205 490 180 490 150 c 0
 490 120 507 95 535 95 c 0
 563 95 580 120 580 150 c 0
 580 180 563 205 535 205 c 0
865 5 m 0
 786 5 720 71 720 150 c 0
 720 229 786 295 865 295 c 0
 944 295 1010 229 1010 150 c 0
 1010 71 944 5 865 5 c 0
865 205 m 0
 837 205 820 180 820 150 c 0
 820 120 837 95 865 95 c 0
 893 95 910 120 910 150 c 0
 910 180 893 205 865 205 c 0
EndSplineSet
Validated: 1
EndChar

StartChar: acutemodifier
Encoding: 714 714 309
Width: 260
VWidth: 0
Flags: W
HStem: 590 170<80 130>
VStem: 20 220
LayerCount: 2
Fore
SplineSet
240 760 m 1
 130 590 l 1
 20 590 l 1
 80 760 l 1
 240 760 l 1
EndSplineSet
Validated: 1
EndChar

StartChar: quoteleftmod
Encoding: 699 699 311
Width: 300
VWidth: 1610
Flags: W
HStem: 480 130<150 220> 720 20G<127.5 220>
VStem: 80 140<480 610> 80 70<610 672.73> 151 69<671 740>
LayerCount: 2
Fore
SplineSet
220 610 m 1xe0
 220 480 l 1
 80 480 l 1
 80 610 l 2xe0
 80 645 104 683 151 740 c 1
 220 740 l 1
 173 684 150 645 150 610 c 1xd8
 220 610 l 1xe0
EndSplineSet
Validated: 1
EndChar

StartChar: apostrophe
Encoding: 700 700 312
Width: 300
VWidth: 1610
Flags: W
HStem: 610 130<80 150>
VStem: 80 140<610 740> 80 69<480 549> 150 70<547.27 610>
LayerCount: 2
Fore
SplineSet
80 610 m 1xc0
 80 740 l 1
 220 740 l 1
 220 610 l 2xc0
 220 575 196 537 149 480 c 1
 80 480 l 1
 127 536 150 575 150 610 c 1xb0
 80 610 l 1xc0
EndSplineSet
Validated: 1
EndChar

StartChar: uni02BD
Encoding: 701 701 313
Width: 300
VWidth: 1610
Flags: W
HStem: 610 130<150 220>
VStem: 80 140<610 740> 80 70<547.27 610> 151 69<480 549>
LayerCount: 2
Fore
SplineSet
220 610 m 1xc0
 150 610 l 1
 150 575 173 536 220 480 c 1
 151 480 l 1xb0
 104 537 80 575 80 610 c 2
 80 740 l 1
 220 740 l 1
 220 610 l 1xc0
EndSplineSet
Validated: 1
EndChar

StartChar: cedilla
Encoding: 184 184 327
Width: 310
Flags: W
HStem: -235 100<20 157.744> -80 80<100 157.185>
VStem: 20 250<-148.097 -135>
LayerCount: 2
Fore
SplineSet
20 -135 m 1
 100.309570312 -135 160 -130 160 -110 c 0
 160 -90 120 -84 70 -80 c 1
 100 0 l 1
 210 0 l 1
 200 -20 l 1
 230 -25 270 -57 270 -110 c 0
 270 -190 200 -235 20 -235 c 1
 20 -135 l 1
EndSplineSet
Validated: 1
EndChar

StartChar: Ccedilla
Encoding: 199 199 328
Width: 760
VWidth: 0
HStem: -247 100<251 388.744> 648 112<299.801 486.928>
VStem: 40 144<232.172 509.352> 586 134<197.426 270 470 604>
LayerCount: 2
Fore
SplineSet
251 -147 m 1
 331 -147 391 -142 391 -122 c 0
 391 -102 351 -96 301 -92 c 1
 330 -16 l 1
 146 10 40 164 40 370 c 0
 40 596 167 760 386 760 c 0
 597 760 688 650 720 470 c 1
 586 470 l 1
 565 589 501 648 395 648 c 0
 249 648 184 528 184 370 c 0
 184 212 249 92 395 92 c 0
 501 92 565 151 586 270 c 1
 720 270 l 1
 691 106 612 -1 438 -18 c 1
 431 -32 l 1
 461 -37 501 -69 501 -122 c 0
 501 -202 431 -247 251 -247 c 1
 251 -147 l 1
EndSplineSet
Validated: 1
EndChar

StartChar: ccedilla
Encoding: 231 231 329
Width: 610
VWidth: 0
HStem: -247 100<171 308.744> 450 110<239.901 381.977>
VStem: 40 140<158.992 381.101> 430 140<139.76 190 350 490>
LayerCount: 2
Fore
SplineSet
171 -147 m 1
 251 -147 311 -142 311 -122 c 0
 311 -102 271 -96 221 -92 c 1
 250 -15 l 1
 119 10 40 121 40 270 c 0
 40 439 142 560 306 560 c 0
 460 560 547 479 570 350 c 1
 430 350 l 1
 420 409 380 450 309 450 c 0
 219 450 180 372 180 270 c 0
 180 168 218 90 309 90 c 0
 380 90 420 131 430 190 c 1
 570 190 l 1
 550 77 480 0 359 -17 c 1
 351 -32 l 1
 381 -37 421 -69 421 -122 c 0
 421 -202 351 -247 171 -247 c 1
 171 -147 l 1
EndSplineSet
Validated: 1
EndChar

StartChar: uni0162
Encoding: 354 354 330
Width: 640
VWidth: 0
HStem: -227 100<185 322.744> 628 112<20 248 392 620>
VStem: 248 144<0 628>
LayerCount: 2
Fore
SplineSet
185 -127 m 1
 265 -127 325 -122 325 -102 c 0
 325 -82 285 -76 235 -72 c 1
 262 -0 l 1
 248 0 l 1
 248 628 l 1
 20 628 l 1
 20 740 l 1
 620 740 l 1
 620 628 l 1
 392 628 l 1
 392 0 l 1
 371 -0 l 1
 365 -12 l 1
 395 -17 435 -49 435 -102 c 0
 435 -182 365 -227 185 -227 c 1
 185 -127 l 1
EndSplineSet
Validated: 1
EndChar

StartChar: uni0163
Encoding: 355 355 331
Width: 350
VWidth: 0
HStem: -245 100<89 226.744> 430 110<20 90 230 320>
VStem: 90 140<99.7224 430 540 690>
LayerCount: 2
Fore
SplineSet
230 190 m 2
 230 138 233 90 274 90 c 0
 289 90 308 92 330 95 c 1
 330 -5 l 1
 315 -11 296 -15 275 -17 c 1
 269 -30 l 1
 299 -35 339 -67 339 -120 c 0
 339 -200 269 -245 89 -245 c 1
 89 -145 l 1
 169 -145 229 -140 229 -120 c 0
 229 -100 189 -94 139 -90 c 1
 169 -10 l 1
 110 14 90 79 90 170 c 2
 90 430 l 1
 20 430 l 1
 20 540 l 1
 90 540 l 1
 90 690 l 1
 230 690 l 1
 230 540 l 1
 320 540 l 1
 320 430 l 1
 230 430 l 1
 230 190 l 2
EndSplineSet
Validated: 1
EndChar

StartChar: Scedilla
Encoding: 350 350 332
Width: 680
VWidth: 0
HStem: -247 100<205 342.744> 648 112<249.298 431.089>
VStem: 40 144<146.77 220> 60 144<476.737 602.746> 476 144<530 604.327> 496 144<143.726 266.061>
LayerCount: 2
Fore
SplineSet
205 -147 m 1xd4
 285 -147 345 -142 345 -122 c 0
 345 -102 305 -96 255 -92 c 1
 283 -17 l 1
 139 -1 40 78 40 220 c 1
 184 220 l 1
 184 135 236 92 340 92 c 0
 444 92 496 135 496 220 c 0xe4
 496 268 446 301 344 319 c 0
 186 347 60 376 60 532 c 0
 60 677 183 760 340 760 c 0
 499 760 620 677 620 530 c 1
 476 530 l 1xd8
 476 609 431 648 340 648 c 0
 249 648 204 609 204 530 c 0
 204 462 267 445 340 432 c 0
 494 405 640 367 640 220 c 0
 640 75 557 -5 392 -18 c 1
 385 -32 l 1
 415 -37 455 -69 455 -122 c 0
 455 -202 385 -247 205 -247 c 1
 205 -147 l 1xd4
EndSplineSet
Validated: 1
EndChar

StartChar: scedilla
Encoding: 351 351 333
Width: 550
VWidth: 0
HStem: -247 100<140 277.744> 450 110<219.136 330.628>
VStem: 60 140<346.442 431.093> 370 140<113.152 192.517>
LayerCount: 2
Fore
SplineSet
140 -147 m 1
 220 -147 280 -142 280 -122 c 0
 280 -102 240 -96 190 -92 c 1
 218 -16 l 1
 115 -1 40 55 40 160 c 1
 180 160 l 1
 180 115 223 90 275 90 c 0
 327 90 370 114 370 160 c 0
 370 188 338 208 275 220 c 0
 132 247 60 300 60 380 c 0
 60 495 154 560 275 560 c 0
 396 560 490 495 490 380 c 1
 350 380 l 1
 350 424 320 450 275 450 c 0
 232 450 200 424 200 384 c 0
 200 346 229 338 275 330 c 0
 398 308 510 278 510 160 c 0
 510 54 433 -3 328 -17 c 1
 320 -32 l 1
 350 -37 390 -69 390 -122 c 0
 390 -202 320 -247 140 -247 c 1
 140 -147 l 1
EndSplineSet
Validated: 1
EndChar

StartChar: Euro
Encoding: 8364 8364 334
Width: 810
VWidth: 0
Flags: W
HStem: -20 112<351.412 536.928> 230 90<20 92.1493 255.432 490> 400 90<20 90.762 249.073 490> 648 112<350.212 536.928>
VStem: 90 144<320 400> 636 134<136 270 470 604>
LayerCount: 2
Fore
SplineSet
490 320 m 5
 490 230 l 5
 255.431626496 230 l 1
 285.200234013 146.325898332 346.765126319 92 445 92 c 4
 551 92 615 151 636 270 c 1
 770 270 l 1
 738 90 647 -20 436 -20 c 0
 265.530017316 -20 150.803688427 79.3691219826 108.328442824 230 c 1
 20 230 l 1
 20 320 l 1
 92.1492856684 320 l 1
 90.7214234538 336.285362571 90 352.966585797 90 370 c 0
 90 380.127564059 90.2550332706 390.130623687 90.7619501949 400 c 1
 20 400 l 1
 20 490 l 1
 103.183959672 490 l 1
 140.901110203 651.772922412 258.09417968 760 436 760 c 0
 647 760 738 650 770 470 c 1
 636 470 l 1
 615 589 551 648 445 648 c 0
 339.141298062 648 275.865221704 584.914628771 249.073017035 490 c 1
 490 490 l 5
 490 400 l 5
 234.811302763 400 l 1
 234.269014244 390.171824975 234 380.16454742 234 370 c 0
 234 352.850708392 234.765758018 336.149090702 236.317733191 320 c 1
 490 320 l 5
EndSplineSet
Validated: 1
EndChar

StartChar: trademark
Encoding: 8482 8482 335
Width: 1135
VWidth: -125
Flags: W
HStem: 716 84<13 165 273 425>
VStem: 165 108<307 716> 496 108<295 620> 967 108<295 603>
DStem2: 629 800 604 620 0.362774 -0.931877<158.668 441.045> 789 389 847 295 0.364741 0.931109<0 264.181>
LayerCount: 2
Fore
SplineSet
13 716 m 1
 13 800 l 1
 425 800 l 1
 425 716 l 1
 273 716 l 1
 273 307 l 1
 165 307 l 1
 165 716 l 1
 13 716 l 1
604 295 m 1
 496 295 l 1
 496 800 l 1
 629 800 l 1
 789 389 l 1
 950 800 l 1
 1075 800 l 1
 1075 295 l 1
 967 295 l 1
 967 603 l 1
 847 295 l 1
 731 295 l 1
 604 620 l 1
 604 295 l 1
EndSplineSet
Validated: 1
EndChar

StartChar: ordfeminine
Encoding: 170 170 336
Width: 403
VWidth: 0
Flags: W
HStem: 300 72<27 377> 412 82<136.025 243.366> 574 83<142.125 271.063> 717 83<152.216 263.414>
VStem: 27 105<501.378 561.516> 272 105<510.75 572.102 649 707.475> 279 98<427 474>
LayerCount: 2
Fore
SplineSet
174 412 m 0xfa
 90 412 27 452 27 529 c 0
 27 611 114 657 205 657 c 0
 226 657 249 654 272 649 c 1
 272 666 l 2
 272 700 250 717 208 717 c 0
 171 717 145 702 145 673 c 1
 42 673 l 1
 42 752 119 800 210 800 c 0
 310 800 377 744 377 653 c 2xfc
 377 427 l 1
 279 427 l 1
 279 474 l 1
 261 440 224 412 174 412 c 0xfa
188 494 m 0
 239 494 272 515 272 557 c 2
 272 568 l 1
 255 572 239 574 222 574 c 0
 176 574 132 563 132 530 c 0
 132 506 160 494 188 494 c 0
377 372 m 1xfa
 377 300 l 1
 27 300 l 1
 27 372 l 1
 377 372 l 1xfa
EndSplineSet
Validated: 1
EndChar

StartChar: ordmasculine
Encoding: 186 186 337
Width: 436
VWidth: 0
Flags: W
HStem: 300 72<43 393> 403 84<161.813 274.396> 717 83<161.813 274.396>
VStem: 27 105<519.7 684.041> 305 105<519.881 684.222>
LayerCount: 2
Fore
SplineSet
27 602 m 0
 27 719 100 800 218 800 c 0
 336 800 410 719 410 602 c 0
 410 485 336 403 218 403 c 0
 100 403 27 485 27 602 c 0
132 602 m 0
 132 536 157 487 218 487 c 0
 279 487 305 537 305 602 c 0
 305 668 279 717 218 717 c 0
 157 717 132 667 132 602 c 0
393 372 m 1
 393 300 l 1
 43 300 l 1
 43 372 l 1
 393 372 l 1
EndSplineSet
Validated: 1
EndChar

StartChar: currency
Encoding: 164 164 338
Width: 500
VWidth: 0
Flags: W
HStem: 115 90<189.707 310.293> 425 90<189.707 310.293>
VStem: 50 100<245.679 384.321> 350 100<245.679 384.321>
DStem2: 100 525 40 465 0.707107 -0.707107<0 65.3043 443.813 509.117> 40 165 100 105 0.707107 0.707107<0 65.3043 443.813 509.117>
LayerCount: 2
Fore
SplineSet
40 465 m 1
 100 525 l 1
 141.928407715 483.071592285 l 1
 173.143559085 503.257556959 210.267063649 515 250 515 c 0
 289.732936351 515 326.856440915 503.257556959 358.071592285 483.071592285 c 1
 400 525 l 1
 460 465 l 1
 418.071592285 423.071592285 l 1
 438.257556959 391.856440915 450 354.732936351 450 315 c 0
 450 275.267063649 438.257556959 238.143559085 418.071592285 206.928407715 c 1
 460 165 l 1
 400 105 l 1
 358.071592285 146.928407715 l 1
 326.856440915 126.742443041 289.732936351 115 250 115 c 0
 210.267063649 115 173.143559085 126.742443041 141.928407715 146.928407715 c 1
 100 105 l 1
 40 165 l 1
 81.9284077154 206.928407715 l 1
 61.7424430411 238.143559085 50 275.267063649 50 315 c 0
 50 354.732936351 61.7424430411 391.856440915 81.9284077154 423.071592285 c 1
 40 465 l 1
150 315 m 0
 150 255 190 205 250 205 c 0
 310 205 350 255 350 315 c 0
 350 375 310 425 250 425 c 0
 190 425 150 375 150 315 c 0
EndSplineSet
Validated: 1
EndChar

StartChar: Eth
Encoding: 208 208 339
Width: 760
VWidth: 0
Flags: W
HStem: 0 112<224 460.099> 324 92<20 80 224 362> 628 112<224 460.099>
VStem: 80 144<112 324 416 628> 576 144<239.89 500.11>
CounterMasks: 1 e0
LayerCount: 2
Fore
SplineSet
576 370 m 0
 576 530 506 628 366 628 c 2
 224 628 l 1
 224 416 l 1
 362 416 l 1
 362 324 l 1
 224 324 l 1
 224 112 l 1
 366 112 l 2
 506 112 576 210 576 370 c 0
80 416 m 1
 80 740 l 1
 400 740 l 2
 590 740 720 580 720 370 c 0
 720 160 590 0 400 0 c 2
 80 0 l 1
 80 324 l 1
 20 324 l 1
 20 416 l 1
 80 416 l 1
EndSplineSet
Validated: 1
EndChar

StartChar: Eng
Encoding: 330 330 340
Width: 790
VWidth: 0
Flags: W
HStem: -240 110<451.151 622> 0 21G<80 224> 720 20G<80 252.302 566 710>
VStem: 80 144<0 530> 550 160<-119.36 0> 566 144<210 740>
DStem2: 240 740 224 530 0.523918 -0.851769<170.489 622.235>
LayerCount: 2
Fore
SplineSet
80 0 m 1xf8
 80 740 l 1
 240 740 l 1
 566 210 l 1
 566 740 l 1
 710 740 l 1xf4
 710 -50 l 2xf8
 710 -165 678 -240 566 -240 c 0xf4
 513 -240 477 -235 450 -225 c 1
 450 -125 l 1
 472 -128 491 -130 506 -130 c 0
 547 -130 550 -81 550 -30 c 2
 550 0 l 1
 224 530 l 1
 224 0 l 1
 80 0 l 1xf8
EndSplineSet
Validated: 1
EndChar

StartChar: eng
Encoding: 331 331 341
Width: 650
VWidth: 0
Flags: W
HStem: -240 110<341.151 497> 0 21G<80 220> 450 110<276.234 400.953> 520 20G<80 220>
VStem: 80 140<0 412.031 480 540> 440 140<-119.36 412.031>
LayerCount: 2
Fore
SplineSet
440 330 m 2xec
 440 410 403 450 330 450 c 0xec
 257 450 220 410 220 330 c 2
 220 0 l 1
 80 0 l 1
 80 540 l 1
 220 540 l 1xdc
 220 480 l 1
 237 525 298 560 360 560 c 0
 481 560 580 502 580 380 c 2
 580 -50 l 2
 580 -165 548 -240 446 -240 c 0
 403 -240 367 -235 340 -225 c 1
 340 -125 l 1
 362 -128 381 -130 396 -130 c 0
 437 -130 440 -82 440 -30 c 2
 440 330 l 2xec
EndSplineSet
Validated: 1
EndChar

StartChar: kgreenlandic
Encoding: 312 312 344
Width: 530
VWidth: 0
Flags: W
HStem: 0 21G<50 190 322.353 510> 520 20G<50 190 322.125 510>
VStem: 50 140<0 170 380 540> 340 170<0 170 370 540>
DStem2: 190 380 260 280 0.693109 0.720833<0 219.993> 260 280 190 170 0.666016 -0.745938<35.432 262.144>
LayerCount: 2
Fore
SplineSet
50 0 m 1
 50 540 l 1
 190 540 l 1
 190 380 l 1
 341 540 l 1
 510 540 l 1
 260 280 l 1
 510 0 l 1
 340 0 l 1
 190 170 l 1
 190 0 l 1
 50 0 l 1
EndSplineSet
Validated: 1
EndChar

StartChar: quotereversed
Encoding: 8219 8219 345
Width: 300
VWidth: 1610
Flags: W
HStem: 610 130<150 220>
VStem: 80 140<610 740> 80 70<547.27 610> 151 69<480 549>
LayerCount: 2
Fore
SplineSet
220 610 m 1xc0
 150 610 l 1
 150 575 173 536 220 480 c 1
 151 480 l 1xb0
 104 537 80 575 80 610 c 2
 80 740 l 1
 220 740 l 1
 220 610 l 1xc0
EndSplineSet
Validated: 1
EndChar

StartChar: Hbar
Encoding: 294 294 347
Width: 760
VWidth: 0
Flags: W
HStem: 0 21G<80 224 536 680> 314 112<224 536> 505 90<30 80 224 536 680 730> 720 20G<80 224 536 680>
VStem: 80 144<0 314 426 505 595 740> 536 144<0 314 426 505 595 740>
LayerCount: 2
Fore
SplineSet
730 595 m 1
 730 505 l 1
 680 505 l 1
 680 0 l 1
 536 0 l 1
 536 314 l 1
 224 314 l 1
 224 0 l 1
 80 0 l 1
 80 505 l 1
 30 505 l 1
 30 595 l 1
 80 595 l 1
 80 740 l 1
 224 740 l 1
 224 595 l 1
 536 595 l 1
 536 740 l 1
 680 740 l 1
 680 595 l 1
 730 595 l 1
536 505 m 1
 224 505 l 1
 224 426 l 1
 536 426 l 1
 536 505 l 1
EndSplineSet
Validated: 1
EndChar

StartChar: hbar
Encoding: 295 295 348
Width: 650
VWidth: 0
Flags: W
HStem: 0 21G<80 220 440 580> 450 110<276.234 400.953> 580 90<20 80 220 340> 720 20G<80 220>
VStem: 80 140<0 412.031 480 580 670 740> 440 140<0 412.031>
LayerCount: 2
Fore
SplineSet
220 480 m 1
 237 525 298 560 360 560 c 0
 481 560 580 502 580 380 c 2
 580 0 l 1
 440 0 l 1
 440 330 l 2
 440 410 403 450 330 450 c 0
 257 450 220 410 220 330 c 2
 220 0 l 1
 80 0 l 1
 80 580 l 5
 20 580 l 5
 20 670 l 5
 80 670 l 5
 80 740 l 1
 220 740 l 1
 220 670 l 5
 340 670 l 5
 340 580 l 5
 220 580 l 5
 220 480 l 1
EndSplineSet
Validated: 1
EndChar

StartChar: Oslash
Encoding: 216 216 349
Width: 800
VWidth: 0
Flags: W
HStem: -20 112<305.013 492.501> 648 112<307.499 495.686>
VStem: 40 144<234.997 502.807> 616 144<237.193 506.882>
DStem2: 80 0 185 -60 0.56921 0.822192<10.4355 103.686 245.059 720.579 871.601 948.683>
LayerCount: 2
Fore
SplineSet
620 780 m 1
 720 720 l 1
 669.60511363 646.527081554 l 1
 728.359953733 578.209696393 760 482.669071246 760 370 c 0
 760 139 627 -20 400 -20 c 0
 337.932021145 -20 282.891712067 -8.11277133532 235.67631417 13.8832243978 c 1
 185 -60 l 1
 80 0 l 1
 138.463024293 84.4465906458 l 1
 74.5416072455 153.255325203 40 252.278054625 40 370 c 0
 40 601 173 760 400 760 c 0
 468.163902264 760 527.85192004 745.663131559 578.008086269 719.3450135 c 1
 620 780 l 1
586.6831438 525.631499371 m 1
 304.13928223 113.698392784 l 1
 331.392344574 99.6749077321 363.329742403 92 400 92 c 0
 545 92 616 212 616 370 c 0
 616 428.465169092 606.278381037 481.727218175 586.6831438 525.631499371 c 1
508.594435727 619.080851605 m 1
 478.715990329 637.669923176 442.543102185 648 400 648 c 0
 255 648 184 528 184 370 c 0
 184 305.689921601 195.762570864 247.675303665 219.490008505 201.48556784 c 1
 508.594435727 619.080851605 l 1
EndSplineSet
Validated: 1
EndChar

StartChar: oslash
Encoding: 248 248 350
Width: 620
VWidth: 0
Flags: W
HStem: -20 110<279.402 378.511> 450 110<241.489 354.089>
VStem: 40 140<181.799 381.514> 440 140<158.486 341.422>
DStem2: 80 0 185 -60 0.527363 0.84964<4.39469 73.3838 213.019 477.545 632.05 682.642>
LayerCount: 2
Fore
SplineSet
40 270 m 0
 40 441 143 560 310 560 c 0
 348.999673088 560 384.508996287 553.510130675 416.031265098 541.38370488 c 1
 440 580 l 1
 540 520 l 1
 511.978736165 474.218780213 l 1
 555.850356731 423.408908441 580 352.800480677 580 270 c 0
 580 99 477 -20 310 -20 c 0
 276.634275946 -20 245.823300311 -15.2497646578 217.878113533 -6.28364549506 c 1
 185 -60 l 1
 80 0 l 1
 115.619660248 57.387230399 l 1
 66.9460792784 108.677475299 40 182.536814725 40 270 c 0
192.338434223 180.989699581 m 1
 354.723347025 442.609836873 l 1
 341.496277665 447.433142018 326.614870099 450 310 450 c 0
 219 450 180 372 180 270 c 0
 180 237.129384405 183.971968839 206.906748035 192.338434223 180.989699581 c 1
278.874654228 93.3726745128 m 1
 288.485380144 91.1554751039 298.852529647 90 310 90 c 0
 401 90 440 168 440 270 c 0
 440 296.538879632 437.410861236 321.351666754 432.01021205 343.56598025 c 1
 278.874654228 93.3726745128 l 1
EndSplineSet
Validated: 1
EndChar

StartChar: Dcroat
Encoding: 272 272 351
Width: 760
VWidth: 0
Flags: W
HStem: 0 112<224 460.099> 324 92<20 80 224 362> 628 112<224 460.099>
VStem: 80 144<112 324 416 628> 576 144<239.89 500.11>
CounterMasks: 1 e0
LayerCount: 2
Fore
SplineSet
576 370 m 0
 576 530 506 628 366 628 c 2
 224 628 l 1
 224 416 l 1
 362 416 l 1
 362 324 l 1
 224 324 l 1
 224 112 l 1
 366 112 l 2
 506 112 576 210 576 370 c 0
80 416 m 1
 80 740 l 1
 400 740 l 2
 590 740 720 580 720 370 c 0
 720 160 590 0 400 0 c 2
 80 0 l 1
 80 324 l 1
 20 324 l 1
 20 416 l 1
 80 416 l 1
EndSplineSet
Validated: 1
EndChar

StartChar: dcroat
Encoding: 273 273 352
Width: 670
VWidth: 0
Flags: W
HStem: -20 110<238.478 384.401> 0 21G<450 590> 450 110<235.46 384.401> 580 90<330 450 590 650> 720 20G<450 590>
VStem: 40 130<166.264 375.483> 450 140<0 60 164.674 375.326 480 580 670 740>
LayerCount: 2
Fore
SplineSet
290 560 m 0xbe
 364 560 422 528 450 480 c 1
 450 580 l 1
 330 580 l 1
 330 670 l 1
 450 670 l 1
 450 740 l 1
 590 740 l 1
 590 670 l 1
 650 670 l 1
 650 580 l 1
 590 580 l 1
 590 0 l 1
 450 0 l 1x7e
 450 60 l 1
 422 12 364 -20 290 -20 c 0
 134 -20 40 98 40 261 c 0
 40 422 136 560 290 560 c 0xbe
310 450 m 0
 216 450 170 372 170 270 c 0
 170 168 216 90 310 90 c 0xbe
 404 90 450 168 450 270 c 0
 450 372 404 450 310 450 c 0
EndSplineSet
Validated: 1
EndChar

StartChar: onequarter
Encoding: 188 188 353
Width: 890
VWidth: 0
Flags: W
HStem: 0 21G<689 797> 91 85<593 689 797 864>
VStem: 204 108<307 685> 689 108<0 91 176 327>
DStem2: 200 85 280 40 0.571064 0.820905<8.74442 700.446> 486 165 593 176 0.537375 0.843344<66.7759 245.709>
LayerCount: 2
Fore
SplineSet
695 493 m 1
 797 493 l 1
 797 176 l 1
 864 176 l 1
 864 91 l 1
 797 91 l 1
 797 0 l 1
 689 0 l 1
 689 91 l 1
 486 91 l 1
 486 165 l 1
 695 493 l 1
689 327 m 1
 593 176 l 1
 689 176 l 1
 689 327 l 1
73 624 m 1
 73 715 l 1
 255 800 l 1
 312 800 l 1
 312 307 l 1
 204 307 l 1
 204 685 l 1
 73 624 l 1
200 85 m 1
 600 660 l 1
 680 615 l 1
 280 40 l 1
 200 85 l 1
EndSplineSet
Validated: 1
EndChar

StartChar: zero.superior
Encoding: 8304 8304 354
Width: 437
VWidth: 0
HStem: 280 85<168.928 269.072> 725 85<168.928 269.072>
VStem: 27 108<404.376 685.624> 303 108<404.376 685.624>
LayerCount: 2
Fore
SplineSet
27 545 m 0
 27 698 76 810 219 810 c 4
 362 810 411 698 411 545 c 0
 411 392 362 280 219 280 c 0
 76 280 27 392 27 545 c 0
135 545 m 0
 135 457 144 365 219 365 c 0
 294 365 303 457 303 545 c 0
 303 633 294 725 219 725 c 0
 144 725 135 633 135 545 c 0
EndSplineSet
Validated: 1
EndChar

StartChar: four.superior
Encoding: 8308 8308 355
Width: 431
VWidth: -179
HStem: 398 85<134 230 338 405>
VStem: 230 108<307 398 483 634>
DStem2: 27 472 134 483 0.537375 0.843344<66.7759 245.709>
LayerCount: 2
Fore
SplineSet
236 800 m 1
 338 800 l 1
 338 483 l 1
 405 483 l 1
 405 398 l 1
 338 398 l 1
 338 307 l 1
 230 307 l 1
 230 398 l 1
 27 398 l 1
 27 472 l 1
 236 800 l 1
230 634 m 1
 134 483 l 1
 230 483 l 1
 230 634 l 1
EndSplineSet
Validated: 1
EndChar

StartChar: five.superior
Encoding: 8309 8309 356
Width: 461
VWidth: -179
HStem: 294 84<161.474 292.237> 559 84<176.867 290.111> 717 83<182 372>
VStem: 321 108<405.236 529.462>
LayerCount: 2
Fore
SplineSet
321 468 m 0
 321 522 287 559 224 559 c 0
 184 559 156 541 140 505 c 1
 33 505 l 1
 90 800 l 1
 372 800 l 1
 372 717 l 1
 182 717 l 1
 159 598 l 1
 170 621 196 643 238 643 c 0
 353 643 429 574 429 469 c 0
 429 364 340 294 223 294 c 0
 127 294 48 357 33 432 c 1
 143 432 l 1
 151 396 178 378 224 378 c 0
 290 378 321 412 321 468 c 0
EndSplineSet
Validated: 1
EndChar

StartChar: six.superior
Encoding: 8310 8310 357
Width: 436
VWidth: -187
HStem: 280 85<163.626 278.411> 552 85<166.529 279.63> 725 85<168.881 284.526>
VStem: 23 111<402.398 620.027> 23 104<568 676.717> 308 108<394.803 524.126>
LayerCount: 2
Fore
SplineSet
295 685 m 1xf4
 290 709 260 725 228 725 c 0
 161 725 127 672 127 568 c 1xec
 151 614 188 637 237 637 c 0
 338 637 416 559 416 457 c 0
 416 349 335 280 222 280 c 0
 90 280 23 371 23 552 c 0
 23 724 92 810 228 810 c 0
 318 810 387 764 401 685 c 1
 295 685 l 1xf4
221 365 m 0
 277 365 308 405 308 459 c 0
 308 513 277 552 221 552 c 0
 165 552 134 513 134 459 c 0xf4
 134 405 165 365 221 365 c 0
EndSplineSet
Validated: 1
EndChar

StartChar: seven.superior
Encoding: 8311 8311 358
Width: 456
VWidth: -179
HStem: 716 84<40 293>
DStem2: 94 307 205 307 0.437285 0.899323<48.5387 454.843>
LayerCount: 2
Fore
SplineSet
40 716 m 1
 40 800 l 5
 417 800 l 1
 417 743 l 1
 205 307 l 1
 94 307 l 1
 293 716 l 1
 40 716 l 1
EndSplineSet
Validated: 1
EndChar

StartChar: eight.superior
Encoding: 8312 8312 359
Width: 452
VWidth: -187
HStem: 280 85<162.422 289.862> 523 85<171.693 282.416> 725 85<171.077 282.923>
VStem: 27 108<392.114 497.657> 50 108<621.749 712.992> 296 108<621.97 712.992> 318 108<392.114 498.127>
LayerCount: 2
Fore
SplineSet
226 280 m 0xe2
 106 280 27 337 27 443 c 0xf2
 27 499 57 539 117 565 c 1
 72 587 50 623 50 671 c 0
 50 759 125 810 227 810 c 0
 329 810 404 759 404 671 c 0xec
 404 621 383 585 340 565 c 1
 398 541 426 500 426 443 c 0
 426 337 346 280 226 280 c 0xe2
226 523 m 0
 172 523 135 493 135 445 c 0
 135 398 172 365 226 365 c 0
 280 365 318 398 318 445 c 0
 318 493 280 523 226 523 c 0
227 725 m 0
 184 725 158 705 158 668 c 0
 158 631 184 608 227 608 c 0
 270 608 296 631 296 668 c 0xec
 296 705 270 725 227 725 c 0
EndSplineSet
Validated: 1
EndChar

StartChar: nine.superior
Encoding: 8313 8313 360
Width: 436
VWidth: -187
HStem: 280 85<151.57 267.471> 453 85<156.37 269.471> 725 85<158.049 272.842>
VStem: 20 108<565.874 695.197> 302 111<469.973 687.602> 309 104<413.283 522>
LayerCount: 2
Fore
SplineSet
141 405 m 1xf8
 146 381 177 365 209 365 c 0
 276 365 309 418 309 522 c 1xf4
 285 476 248 453 199 453 c 0
 98 453 20 531 20 633 c 0
 20 741 102 810 215 810 c 0
 347 810 413 719 413 538 c 0
 413 366 344 280 208 280 c 0
 118 280 49 326 35 405 c 1
 141 405 l 1xf8
215 725 m 0
 159 725 128 685 128 631 c 0
 128 577 159 538 215 538 c 0
 271 538 302 577 302 631 c 0xf8
 302 685 271 725 215 725 c 0
EndSplineSet
Validated: 1
EndChar

StartChar: onehalf
Encoding: 189 189 361
Width: 1000
VWidth: 0
Flags: W
HStem: 0 84<774 973> 423 84<721.529 828.408>
VStem: 204 108<307 685> 589 108<329 398.675> 852 108<262.884 398.601>
DStem2: 200 85 280 40 0.571064 0.820905<8.74442 700.446> 786 217 774 84 0.79473 0.606964<-90.2629 87.7117>
LayerCount: 2
Fore
SplineSet
774 423 m 4
 719 423 697 383 697 329 c 5
 589 329 l 5
 589 438 660 507 773 507 c 4
 884 507 960 435 960 329 c 4
 960 224 881 168 816 116 c 6
 774 84 l 5
 974 84 l 5
 973 0 l 5
 604 0 l 5
 604 78 l 5
 786 217 l 6
 829 250 852 288 852 330 c 4
 852 384 829 423 774 423 c 4
73 624 m 1
 73 715 l 1
 255 800 l 1
 312 800 l 1
 312 307 l 1
 204 307 l 1
 204 685 l 1
 73 624 l 1
200 85 m 1
 600 660 l 1
 680 615 l 1
 280 40 l 1
 200 85 l 1
EndSplineSet
Validated: 1
EndChar

StartChar: threequarters
Encoding: 190 190 362
Width: 970
VWidth: 0
Flags: W
HStem: 0 21G<769 877> 91 85<673 769 877 944> 284 85<161.033 284.967> 527 85<174 272.6> 729 85<165.825 277.112>
VStem: 27 108<394.092 449> 49 106<672 714.614> 289 108<629.51 716.946> 311 108<395.409 497.971> 769 108<0 91 176 327>
DStem2: 280 85 360 40 0.571064 0.820905<8.74442 700.446> 566 165 673 176 0.537375 0.843344<66.7759 245.709>
LayerCount: 2
Fore
SplineSet
419 447 m 0xf8c0
 419 341 341 284 223 284 c 0
 105 284 27 342 27 449 c 1
 135 449 l 1
 135 402 171 369 223 369 c 0
 275 369 311 402 311 449 c 0xfcc0
 311 501 266 527 174 527 c 1
 174 612 l 1
 241 612 289 622 289 671 c 0
 289 709 264 729 222 729 c 0
 180 729 155 709 155 672 c 1
 49 672 l 1
 49 761 123 814 223 814 c 0
 323 814 397 763 397 675 c 0xfb40
 397 625 376 589 333 569 c 1
 391 545 419 504 419 447 c 0xf8c0
775 493 m 5
 877 493 l 5
 877 176 l 5
 944 176 l 5
 944 91 l 5
 877 91 l 5
 877 0 l 5
 769 0 l 5
 769 91 l 5
 566 91 l 5
 566 165 l 5
 775 493 l 5
769 327 m 5
 673 176 l 5
 769 176 l 5
 769 327 l 5
280 85 m 1
 680 660 l 1
 760 615 l 1
 360 40 l 1
 280 85 l 1
EndSplineSet
Validated: 1
EndChar

StartChar: copyright
Encoding: 169 169 363
Width: 880
VWidth: 0
Flags: W
HStem: -20 90<328.446 551.554> 134 86<382.432 503.236> 520 86<382.432 503.236> 670 90<328.446 551.554>
VStem: 40 110<254.737 485.263> 227 110<270.745 469.255> 535 110<198 308 432 542> 730 110<254.737 485.263>
LayerCount: 2
Fore
SplineSet
150 370 m 4
 150 200 270 70 440 70 c 4
 610 70 730 200 730 370 c 4
 730 540 610 670 440 670 c 4
 270 670 150 540 150 370 c 4
40 370 m 4
 40 600 210 760 440 760 c 4
 670 760 840 600 840 370 c 4
 840 140 670 -20 440 -20 c 4
 210 -20 40 140 40 370 c 4
227 370 m 0
 227 515 310 606 440 606 c 0
 570 606 637.155983153 521.657522828 645 432 c 1
 535 432 l 1
 531.51377029 471.847787924 510 520 440 520 c 0
 378 520 337 465 337 370 c 0
 337 275 378 220 440 220 c 0
 510 220 531.51377029 268.152212076 535 308 c 1
 645 308 l 1
 637.155983153 218.342477172 570 134 440 134 c 0
 310 134 227 225 227 370 c 0
EndSplineSet
Validated: 1
EndChar

StartChar: registered
Encoding: 174 174 364
Width: 860
VWidth: 0
Flags: W
HStem: -20 90<328.446 551.554> 315 75<372 437> 518 80<372 506.426> 670 90<328.446 551.554>
VStem: 40 110<254.737 485.263> 262 110<151 315 390 518> 522 110<404.379 504.099> 730 110<254.737 485.263>
DStem2: 544 323 437 315 0.479567 -0.877505<0 142.299>
LayerCount: 2
Fore
SplineSet
150 370 m 0
 150 200 270 70 440 70 c 0
 610 70 730 200 730 370 c 0
 730 540 610 670 440 670 c 0
 270 670 150 540 150 370 c 0
40 370 m 0
 40 600 210 760 440 760 c 0
 670 760 840 600 840 370 c 0
 840 140 670 -20 440 -20 c 0
 210 -20 40 140 40 370 c 0
372 390 m 1
 455 390 l 2
 497 390 522 414 522 454 c 0
 522 494 497 518 455 518 c 2
 372 518 l 1
 372 390 l 1
262 151 m 1
 262 598 l 1
 495 598 l 2
 555 598 632 544 632 454 c 0
 632 387 586 338 544 323 c 1
 638 151 l 1
 526 151 l 1
 437 315 l 1
 372 315 l 1
 372 151 l 1
 262 151 l 1
EndSplineSet
Validated: 1
EndChar

StartChar: Lslash
Encoding: 321 321 365
Width: 660
VWidth: 0
Flags: W
HStem: 0 112<224 640> 435 90<260 350> 720 20G<80 224>
VStem: 80 144<112 239 329 343 433 740>
DStem2: 20 285 80 239 0.808736 0.588172<0 21.4683 252.032 355.109>
LayerCount: 2
Fore
SplineSet
350 525 m 1
 350 435 l 1
 224 343 l 1
 224 112 l 1
 640 112 l 1
 640 0 l 1
 80 0 l 1
 80 239 l 1
 20 195 l 1
 20 285 l 1
 80 329 l 1
 80 740 l 1
 224 740 l 1
 224 433 l 1
 350 525 l 1
EndSplineSet
Validated: 1
EndChar

StartChar: lslash
Encoding: 322 322 366
Width: 360
VWidth: 0
Flags: W
HStem: 0 21G<110 250> 195 90<20 110> 435 90<250 340> 720 20G<110 250>
VStem: 110 140<0 262 352 368 458 740>
DStem2: 20 285 20 195 0.8 0.6<0 58.2 287.8 346>
LayerCount: 2
Fore
SplineSet
340 525 m 1
 340 435 l 1
 250 368 l 1
 250 0 l 1
 110 0 l 1
 110 262 l 1
 20 195 l 1
 20 285 l 1
 110 352 l 1
 110 740 l 1
 250 740 l 1
 250 458 l 1
 340 525 l 1
EndSplineSet
Validated: 1
EndChar

StartChar: Tbar
Encoding: 358 358 367
Width: 640
VWidth: 0
Flags: W
HStem: 0 21G<248 392> 379 102<80 248 392 560> 628 112<20 248 392 620>
VStem: 248 144<0 379 481 628>
LayerCount: 2
Fore
SplineSet
560 481 m 1
 560 379 l 1
 392 379 l 1
 392 0 l 1
 248 0 l 1
 248 379 l 1
 80 379 l 1
 80 481 l 1
 248 481 l 1
 248 628 l 1
 20 628 l 1
 20 740 l 1
 620 740 l 1
 620 628 l 1
 392 628 l 1
 392 481 l 1
 560 481 l 1
EndSplineSet
Validated: 1
EndChar

StartChar: tbar
Encoding: 359 359 368
Width: 350
VWidth: 0
Flags: W
HStem: -20 110<173 328.849> 260 90<30 90 230 290> 430 110<20 90 230 320>
VStem: 90 140<100.64 260 350 430 540 690>
LayerCount: 2
Fore
SplineSet
230 190 m 2
 230 138 233 90 274 90 c 0
 289 90 308 92 330 95 c 1
 330 -5 l 1
 303 -15 267 -20 224 -20 c 0
 122 -20 90 55 90 170 c 2
 90 260 l 1
 30 260 l 1
 30 350 l 1
 90 350 l 1
 90 430 l 1
 20 430 l 1
 20 540 l 1
 90 540 l 1
 90 690 l 1
 230 690 l 1
 230 540 l 1
 320 540 l 1
 320 430 l 1
 230 430 l 1
 230 350 l 1
 290 350 l 1
 290 260 l 1
 230 260 l 1
 230 190 l 2
EndSplineSet
Validated: 1
EndChar

StartChar: uni2010
Encoding: 8208 8208 369
Width: 360
VWidth: 0
Flags: W
HStem: 275 110<40 320>
VStem: 40 280<275 385>
LayerCount: 2
Fore
SplineSet
40 275 m 1
 40 385 l 1
 320 385 l 1
 320 275 l 1
 40 275 l 1
EndSplineSet
Validated: 1
EndChar

StartChar: figuredash
Encoding: 8210 8210 370
Width: 620
VWidth: 0
Flags: W
HStem: 275 110<40 580>
LayerCount: 2
Fore
SplineSet
40 275 m 1
 40 385 l 1
 580 385 l 1
 580 275 l 1
 40 275 l 1
EndSplineSet
Validated: 1
EndChar

StartChar: uni2015
Encoding: 8213 8213 371
Width: 2000
VWidth: 0
Flags: W
HStem: 275 110<40 1960>
LayerCount: 2
Fore
SplineSet
40 275 m 1
 40 385 l 1
 1960 385 l 1
 1960 275 l 1
 40 275 l 1
EndSplineSet
Validated: 1
EndChar

StartChar: uni203D
Encoding: 8253 8253 373
Width: 560
Flags: W
HStem: 0 130<210 350> 740 20G<208 352>
VStem: 40 140<520 613.134> 210 140<0 130 190 282.656 427 624> 380 140<446.814 613.134>
CounterMasks: 1 38
LayerCount: 2
Fore
SplineSet
280 760 m 0
 424 760 520 665 520 520 c 0
 520 459 493 405 440 360 c 0
 380 310 350 260 350 210 c 2
 350 190 l 1
 210 190 l 1
 210 220 l 2
 210 245 217 269 229 292 c 1
 210 470 l 1
 210 624 l 1
 190 603 180 568 180 520 c 1
 40 520 l 1
 40 665 136 760 280 760 c 0
350 0 m 1
 210 0 l 1
 210 130 l 1
 350 130 l 1
 350 0 l 1
345 427 m 1
 368 457 380 489 380 520 c 0
 380 568 370 603 350 624 c 1
 350 470 l 1
 345 427 l 1
EndSplineSet
Validated: 1
EndChar

StartChar: uni203E
Encoding: 8254 8254 374
Width: 560
VWidth: 0
Flags: W
HStem: 690 110<-20 580>
LayerCount: 2
Fore
SplineSet
-20 800 m 1
 580 800 l 1
 580 690 l 1
 -20 690 l 1
 -20 800 l 1
EndSplineSet
Validated: 1
EndChar

StartChar: uni0310
Encoding: 784 784 378
Width: 0
VWidth: 0
Flags: W
HStem: 570 80<-264.955 -155.306> 720 20G<-401 -291 -130 -20> 730 130<-280 -140>
VStem: -401 110<679.242 740> -280 140<730 860> -130 110<679.242 740>
LayerCount: 2
Fore
SplineSet
-280 730 m 1xbc
 -280 860 l 1
 -140 860 l 1
 -140 730 l 1
 -280 730 l 1xbc
-401 740 m 1xdc
 -291 740 l 1
 -291 690 -260 650 -210 650 c 0
 -160 650 -130 690 -130 740 c 1
 -20 740 l 1
 -20 630 -110 570 -210 570 c 0
 -310 570 -401 630 -401 740 c 1xdc
EndSplineSet
Validated: 1
EndChar

StartChar: uni030F
Encoding: 783 783 379
Width: 420
VWidth: 0
Flags: W
HStem: 590 170
LayerCount: 2
Fore
SplineSet
400 590 m 1
 320 590 l 1
 190 760 l 1
 320 760 l 1
 400 590 l 1
230 590 m 1
 150 590 l 1
 20 760 l 1
 150 760 l 1
 230 590 l 1
EndSplineSet
Validated: 1
EndChar

StartChar: uni0311
Encoding: 785 785 380
Width: 0
VWidth: 0
Flags: W
HStem: 660 80<-213.203 -146.797>
VStem: -340 110<570 642.969> -130 110<570 642.969>
LayerCount: 2
Fore
SplineSet
-340 570 m 1
 -340 680 -270 740 -180 740 c 0
 -90 740 -20 680 -20 570 c 1
 -130 570 l 1
 -130 620 -150 660 -180 660 c 0
 -210 660 -230 620 -230 570 c 1
 -340 570 l 1
EndSplineSet
Validated: 1
EndChar

StartChar: Omega
Encoding: 8486 8486 381
Width: 820
VWidth: 0
Flags: W
HStem: 0 110<20 180 305.856 370 450 514.144 640 800> 650 110<300.583 519.417>
VStem: 40 140<250.732 516.141> 640 140<250.656 516.141>
LayerCount: 2
Fore
SplineSet
410 760 m 0
 610 760 780 630 780 380 c 0
 780 240 717.942382812 155 640 110 c 1
 800 110 l 1
 800 0 l 1
 450 0 l 1
 450 110 l 1
 563.217773438 130.166992188 640 210 640 380 c 0
 640 570 550 650 410 650 c 0
 270 650 180 570 180 380 c 0
 180 210 256.782226562 130.166992188 370 110 c 1
 370 0 l 1
 20 0 l 1
 20 110 l 1
 180 110 l 1
 101.000976562 155.610351562 40 240 40 380 c 0
 40 630 210 760 410 760 c 0
EndSplineSet
Validated: 1
EndChar

StartChar: integral
Encoding: 8747 8747 382
Width: 380
VWidth: 0
Flags: W
HStem: -260 110<21.1506 177> 650 110<203 358.849>
VStem: 120 140<-139.36 639.36>
LayerCount: 2
Fore
SplineSet
120 570 m 2
 120 685 152 760 254 760 c 0
 297 760 333 755 360 745 c 1
 360 645 l 1
 338 648 319 650 304 650 c 0
 263 650 260 602 260 550 c 2
 260 -70 l 2
 260 -185 228 -260 126 -260 c 0
 83 -260 47 -255 20 -245 c 1
 20 -145 l 1
 42 -148 61 -150 76 -150 c 0
 117 -150 120 -102 120 -50 c 2
 120 570 l 2
EndSplineSet
Validated: 1
EndChar

StartChar: OE
Encoding: 338 338 383
Width: 1200
VWidth: 0
Flags: W
HStem: -20 112<307.499 493.955> 0 112<764 1180> 314 112<764 1150> 628 112<764 1180> 648 112<307.499 493.955>
VStem: 40 144<237.193 502.807> 616 148<235.51 314 426 504.49>
LayerCount: 2
Fore
SplineSet
184 370 m 0xae
 184 212 255 92 400 92 c 0
 545 92 616 212 616 370 c 0
 616 528 545 648 400 648 c 0
 255 648 184 528 184 370 c 0xae
40 370 m 0
 40 601 173 760 400 760 c 0xae
 488 760 562 736 620 693 c 1
 620 740 l 1
 1180 740 l 1
 1180 628 l 1
 764 628 l 1
 764 426 l 1
 1150 426 l 1
 1150 314 l 1
 764 314 l 1
 764 112 l 1
 1180 112 l 1
 1180 0 l 1
 620 0 l 1x76
 620 47 l 1
 562 4 488 -20 400 -20 c 0
 173 -20 40 139 40 370 c 0
EndSplineSet
Validated: 1
EndChar

StartChar: oe
Encoding: 339 339 384
Width: 1020
VWidth: 0
Flags: W
HStem: -20 110<241.489 380.789 639.593 788.159> 230 110<580 840> 450 110<241.489 380.789 632.573 785.334>
VStem: 40 140<158.275 381.514> 830 140<30 170>
LayerCount: 2
Fore
SplineSet
580 230 m 1
 590 150 630 90 712 90 c 0
 771 90 822 124 830 170 c 1
 970 170 l 1
 948 53 851 -20 706 -20 c 0
 623 -20 556 11 510 63 c 1
 463 10 395 -20 310 -20 c 0
 143 -20 40 99 40 270 c 0
 40 441 143 560 310 560 c 0
 395 560 463 529 510 476 c 1
 557 529 626 560 712 560 c 0
 893 560 980 423 980 230 c 1
 580 230 l 1
840 340 m 1
 821 408 790 450 710 450 c 0
 630 450 599 408 580 340 c 1
 840 340 l 1
180 270 m 0
 180 167 219 90 310 90 c 0
 401 90 440 168 440 270 c 0
 440 373 401 450 310 450 c 0
 219 450 180 372 180 270 c 0
EndSplineSet
Validated: 1
EndChar

StartChar: partialdiff
Encoding: 8706 8706 387
Width: 580
VWidth: 0
Flags: W
HStem: -20 113<222.808 357.192> 450 110<225.617 348.587> 720 20G<130 349.574>
VStem: 20 140<167.833 377.684> 420 140<167.833 376.528>
LayerCount: 2
Fore
SplineSet
130 740 m 1
 280 740 l 1
 419.147824537 665.074248326 560 480.044674539 560 271 c 0
 560 91 440 -20 290 -20 c 0
 140 -20 20 91 20 271 c 0
 20 451 140 560 270 560 c 0
 300 560 324 555 350 540 c 1
 309.689206568 612.559428178 202.486155603 698.579339655 130 740 c 1
160 271 m 0
 160 151 220 93 290 93 c 0
 360 93 420 151 420 271 c 0
 420 391 360 450 290 450 c 0
 220 450 160 391 160 271 c 0
EndSplineSet
Validated: 1
EndChar

StartChar: fraction
Encoding: 8260 8260 388
Width: 520
VWidth: 0
Flags: W
DStem2: 20 85 100 40 0.571064 0.820905<8.74442 700.446>
LayerCount: 2
Fore
SplineSet
20 85 m 1
 420 660 l 1
 500 615 l 1
 100 40 l 1
 20 85 l 1
EndSplineSet
Validated: 1
EndChar

StartChar: summation
Encoding: 8721 8721 389
Width: 600
VWidth: 0
Flags: W
HStem: -220 112<174 580> 628 112<174 580>
DStem2: 174 628 20 628 0.57254 -0.819877<0 348.48> 20 -108 174 -108 0.551641 0.834082<84.9527 453.193>
LayerCount: 2
Fore
SplineSet
174 -108 m 1
 580 -108 l 1
 580 -220 l 1
 20 -220 l 1
 20 -108 l 1
 270 270 l 1
 20 628 l 1
 20 740 l 1
 580 740 l 1
 580 628 l 1
 174 628 l 1
 424 270 l 1
 174 -108 l 1
EndSplineSet
Validated: 1
EndChar

StartChar: product
Encoding: 8719 8719 390
Width: 760
VWidth: 0
Flags: W
HStem: 628 112<224 536>
VStem: 80 144<-220 628> 536 144<-220 628>
LayerCount: 2
Fore
SplineSet
80 -220 m 1
 80 740 l 1
 680 740 l 1
 680 -220 l 1
 536 -220 l 1
 536 628 l 1
 224 628 l 1
 224 -220 l 1
 80 -220 l 1
EndSplineSet
Validated: 1
EndChar

StartChar: pi
Encoding: 960 960 391
Width: 610
VWidth: 0
Flags: W
HStem: 0 21G<80 220 390 530> 430 110<20 80 220 390 530 590>
VStem: 80 140<0 430> 390 140<0 430>
LayerCount: 2
Fore
SplineSet
20 540 m 1
 590 540 l 1
 590 430 l 1
 530 430 l 1
 530 0 l 1
 390 0 l 1
 390 430 l 1
 220 430 l 1
 220 0 l 1
 80 0 l 1
 80 430 l 1
 20 430 l 1
 20 540 l 1
EndSplineSet
Validated: 1
EndChar

StartChar: radical
Encoding: 8730 8730 392
Width: 700
VWidth: 1914
Flags: W
HStem: 0 21G<249.628 450.378> 430 110<20 119> 720 20G<539.636 680>
VStem: 546 134<606 740>
DStem2: 218 540 119 430 0.303569 -0.952809<74.7556 436.44> 350 124 444 0 0.303841 0.952723<0 646.43>
LayerCount: 2
Fore
SplineSet
218 540 m 1
 350 124 l 1
 546 740 l 1
 680 740 l 1
 444 0 l 1
 256 0 l 1
 119 430 l 9
 20 430 l 25
 20 540 l 25
 218 540 l 1
EndSplineSet
Validated: 1
EndChar

StartChar: lozenge
Encoding: 9674 9674 393
Width: 460
VWidth: 1914
Flags: W
HStem: 0 124<136 324> 616 124<136 324>
VStem: 18 134<303 437> 308 134<303 437>
DStem2: 136 740 230 616 0.303841 0.952723<-347.646 -89.5765> 230 124 136 0 0.303841 -0.952723<-258.069 0> 324 740 230 616 0.303841 -0.952723<89.5765 347.646> 230 124 324 0 0.303841 0.952723<0 258.069>
LayerCount: 2
Fore
SplineSet
18 370 m 1
 136 740 l 1
 324 740 l 1
 442 370 l 1
 324 0 l 1
 136 0 l 1
 18 370 l 1
152 370 m 1
 230 124 l 1
 308 370 l 1
 230 616 l 1
 152 370 l 1
EndSplineSet
Validated: 1
EndChar

StartChar: infinity
Encoding: 8734 8734 394
Width: 560
VWidth: 0
Flags: W
HStem: 250 90<148.875 221.136 338.864 411.125> 450 90<148.875 221.136 338.864 411.125>
VStem: 40 100<348.141 441.859> 230 100<347.368 442.632> 420 100<348.141 441.859>
CounterMasks: 1 38
LayerCount: 2
Fore
SplineSet
185 450 m 0
 157 450 140 425 140 395 c 0
 140 365 157 340 185 340 c 0
 213 340 230 365 230 395 c 0
 230 425 213 450 185 450 c 0
185 250 m 0
 106 250 40 316 40 395 c 0
 40 474 106 540 185 540 c 0
 221 540 254 526 280 504 c 1
 306 526 339 540 375 540 c 0
 454 540 520 474 520 395 c 0
 520 316 454 250 375 250 c 0
 339 250 306 264 280 286 c 1
 254 264 221 250 185 250 c 0
330 395 m 0
 330 365 347 340 375 340 c 0
 403 340 420 365 420 395 c 0
 420 425 403 450 375 450 c 0
 347 450 330 425 330 395 c 0
EndSplineSet
Validated: 1
EndChar

StartChar: approxequal
Encoding: 8776 8776 395
Width: 490
VWidth: 0
Flags: W
HStem: 155 70<292.385 370.019> 240 70<119.981 198.281> 325 70<292.385 370.019> 410 70<119.981 198.281>
VStem: 40 70<155 231.903 325 401.903> 380 70<233.097 310 403.097 480>
LayerCount: 2
Fore
SplineSet
40 325 m 1
 40 425 90 480 150 480 c 0
 180 480 208.850585938 474.415039062 258 440 c 0
 307.149414062 405.584960938 325 395 340 395 c 0
 360 395 380 410 380 480 c 1
 450 480 l 1
 450 380 400 325 340 325 c 0
 310 325 282.149414062 330.584960938 233 365 c 0
 183.850585938 399.415039062 165 410 150 410 c 0
 130 410 110 395 110 325 c 1
 40 325 l 1
40 155 m 1
 40 255 90 310 150 310 c 0
 180 310 208.850585938 304.415039062 258 270 c 0
 307.149414062 235.584960938 325 225 340 225 c 0
 360 225 380 240 380 310 c 1
 450 310 l 1
 450 210 400 155 340 155 c 0
 310 155 282.149414062 160.584960938 233 195 c 0
 183.850585938 229.415039062 165 240 150 240 c 0
 130 240 110 225 110 155 c 1
 40 155 l 1
EndSplineSet
Validated: 1
EndChar

StartChar: lscript
Encoding: 8467 8467 396
Width: 340
VWidth: 0
Flags: W
HStem: -20 110<163 318.849> 720 20G<80 220>
VStem: 80 140<100.64 740>
LayerCount: 2
Fore
SplineSet
220 740 m 1
 220 190 l 2
 220 138 223 90 264 90 c 0
 279 90 298 92 320 95 c 1
 320 -5 l 1
 293 -15 257 -20 214 -20 c 0
 112 -20 80 55 80 170 c 2
 80 740 l 1
 220 740 l 1
EndSplineSet
Validated: 1
EndChar

StartChar: uni20BA
Encoding: 8378 8378 397
Width: 670
VWidth: 0
Flags: W
HStem: 0 112<234 345.897> 210 110<20 90 234 380> 400 110<20 90 234 380>
VStem: 90 144<112 210 320 400 510 720> 508 142<218 360>
LayerCount: 2
Fore
SplineSet
20 210 m 1
 20 320 l 1
 90 320 l 1
 90 400 l 1
 20 400 l 1
 20 510 l 1
 90 510 l 1
 90 720 l 1
 234 720 l 1
 234 510 l 1
 380 510 l 1
 380 400 l 1
 234 400 l 1
 234 320 l 1
 380 320 l 1
 380 210 l 1
 234 210 l 1
 234 112 l 1
 404 112 482 212 508 360 c 1
 650 360 l 1
 615 163 494 0 234 0 c 2
 90 0 l 1
 90 210 l 1
 20 210 l 1
EndSplineSet
Validated: 1
EndChar

StartChar: uni20BD
Encoding: 8381 8381 398
Width: 670
VWidth: 0
Flags: W
HStem: 0 21G<100 244> 120 112<20 100 244 440> 290 112<20 100 244 465.955> 628 112<244 465.955>
VStem: 100 144<0 120 232 290 402 628> 506 144<442.244 587.756>
LayerCount: 2
Fore
SplineSet
440 232 m 1
 440 120 l 1
 244 120 l 1
 244 0 l 1
 100 0 l 1
 100 120 l 1
 20 120 l 1
 20 232 l 1
 100 232 l 1
 100 290 l 1
 20 290 l 1
 20 402 l 1
 100 402 l 1
 100 740 l 1
 450 740 l 2
 565 740 650 639 650 515 c 0
 650 391 565 290 450 290 c 2
 244 290 l 1
 244 232 l 1
 440 232 l 1
506 515 m 0
 506 591 461 628 386 628 c 2
 244 628 l 1
 244 402 l 1
 386 402 l 2
 461 402 506 439 506 515 c 0
EndSplineSet
Validated: 1
EndChar

StartChar: uni01EA
Encoding: 490 490 424
Width: 800
VWidth: 0
HStem: -233 74<367.367 479.153> 648 112<307.499 492.501>
VStem: 40 144<234.22 502.807> 250 110<-148.802 -62.7226> 616 144<236.517 502.807>
LayerCount: 2
Fore
SplineSet
184 370 m 0
 184 212 255 92 400 92 c 0
 545 92 616 212 616 370 c 0
 616 528 545 648 400 648 c 0
 255 648 184 528 184 370 c 0
40 370 m 0
 40 601 173 760 400 760 c 0
 627 760 760 601 760 370 c 0
 760 153 643 0 441 -18 c 1
 372 -60 360 -84 360 -113 c 0
 360 -148 390 -159 430 -159 c 0
 450 -159 465 -152 480 -139 c 1
 480 -213 l 1
 459 -225 430 -233 390 -233 c 0
 310 -233 250 -193 250 -123 c 0
 250 -75 281 -40 341 -16 c 1
 150 9 40 160 40 370 c 0
EndSplineSet
EndChar

StartChar: uni01EB
Encoding: 491 491 425
Width: 620
VWidth: 0
HStem: -233 74<277.367 389.153> 450 110<241.489 378.511>
VStem: 40 140<158.273 381.514> 160 110<-148.802 -62.1762> 440 140<159.825 381.725>
LayerCount: 2
Fore
SplineSet
180 270 m 0xe8
 180 167 219 90 310 90 c 0
 401 90 440 168 440 270 c 0
 440 373 401 450 310 450 c 0
 219 450 180 372 180 270 c 0xe8
40 270 m 0
 40 441 143 560 310 560 c 0
 477 560 580 441 580 270 c 0
 580 114 494 1 352 -17 c 1
 281 -59 270 -84 270 -113 c 0
 270 -148 300 -159 340 -159 c 0
 360 -159 375 -152 390 -139 c 1
 390 -213 l 1
 369 -225 340 -233 300 -233 c 0
 220 -233 160 -193 160 -123 c 0xd8
 160 -75 191 -39 253 -15 c 1
 120 9 40 119 40 270 c 0
EndSplineSet
EndChar

StartChar: uni1E10
Encoding: 7696 7696 517
Width: 760
VWidth: 0
HStem: -227 100<240 377.744> 0 112<224 317> 628 112<224 460.099>
VStem: 80 144<112 628> 576 144<238.645 500.11>
LayerCount: 2
Fore
SplineSet
240 -127 m 1
 320 -127 380 -122 380 -102 c 0
 380 -82 340 -76 290 -72 c 1
 317 0 l 1
 80 0 l 1
 80 740 l 1
 400 740 l 2
 590 740 720 580 720 370 c 0
 720 170 602 15 427 1 c 1
 420 -12 l 1
 450 -17 490 -49 490 -102 c 0
 490 -182 420 -227 240 -227 c 1
 240 -127 l 1
576 370 m 0
 576 530 506 628 366 628 c 2
 224 628 l 1
 224 112 l 1
 366 112 l 2
 506 112 576 210 576 370 c 0
EndSplineSet
EndChar

StartChar: uni1E11
Encoding: 7697 7697 518
Width: 670
VWidth: 0
HStem: -247 100<155 292.744> 0 21G<450 590> 450 110<235.46 384.401> 720 20G<450 590>
VStem: 40 130<165.962 375.483> 450 140<0 60 164.674 375.326 480 740>
LayerCount: 2
Fore
SplineSet
155 -147 m 1
 235 -147 295 -142 295 -122 c 0
 295 -102 255 -96 205 -92 c 1
 234 -15 l 1
 112 10 40 119 40 261 c 0
 40 422 136 560 290 560 c 0
 364 560 422 528 450 480 c 1
 450 740 l 1
 590 740 l 1
 590 0 l 1
 450 0 l 1
 450 60 l 1
 429 24 392 -2 344 -14 c 1
 335 -32 l 1
 365 -37 405 -69 405 -122 c 0
 405 -202 335 -247 155 -247 c 1
 155 -147 l 1
310 450 m 0
 216 450 170 372 170 270 c 0
 170 168 216 90 310 90 c 0
 404 90 450 168 450 270 c 0
 450 372 404 450 310 450 c 0
EndSplineSet
EndChar

StartChar: uni1E28
Encoding: 7720 7720 539
Width: 760
VWidth: 0
HStem: -227 100<17 154.744> 0 21G<536 680> 314 112<224 536> 720 20G<80 224 536 680>
VStem: 80 144<0 314 426 740> 536 144<0 314 426 740>
LayerCount: 2
Fore
SplineSet
17 -127 m 1
 97 -127 157 -122 157 -102 c 0
 157 -82 117 -76 67 -72 c 1
 94 -0 l 1
 80 0 l 1
 80 740 l 1
 224 740 l 1
 224 426 l 1
 536 426 l 1
 536 740 l 1
 680 740 l 1
 680 0 l 1
 536 0 l 1
 536 314 l 1
 224 314 l 1
 224 0 l 1
 203 -0 l 1
 197 -12 l 1
 227 -17 267 -49 267 -102 c 0
 267 -182 197 -227 17 -227 c 1
 17 -127 l 1
EndSplineSet
EndChar

StartChar: uni1E29
Encoding: 7721 7721 540
Width: 650
VWidth: 0
HStem: -227 100<15 152.744> 0 21G<440 580> 450 110<276.234 400.953> 720 20G<80 220>
VStem: 80 140<0 412.031 480 740> 440 140<0 412.031>
LayerCount: 2
Fore
SplineSet
15 -127 m 1
 95 -127 155 -122 155 -102 c 0
 155 -82 115 -76 65 -72 c 1
 92 -0 l 1
 80 0 l 1
 80 740 l 1
 220 740 l 1
 220 480 l 1
 237 525 298 560 360 560 c 0
 481 560 580 502 580 380 c 2
 580 0 l 1
 440 0 l 1
 440 330 l 2
 440 410 403 450 330 450 c 0
 257 450 220 410 220 330 c 2
 220 0 l 1
 201 -0 l 1
 195 -12 l 1
 225 -17 265 -49 265 -102 c 0
 265 -182 195 -227 15 -227 c 1
 15 -127 l 1
EndSplineSet
EndChar

